<svg width="1736" height="1101" viewBox="0 0 1736 1101" fill="none" xmlns="http://www.w3.org/2000/svg">
<path d="M1560.81 1140.83C1657.16 687.55 1367.61 241.946 914.085 145.547C460.56 49.1473 14.8009 338.457 -81.5469 791.738C-177.895 1245.02 111.654 1690.62 565.179 1787.02C1018.7 1883.42 1464.46 1594.11 1560.81 1140.83Z" stroke="#F5F7F8" stroke-width="4.65572" stroke-miterlimit="10"/>
<path d="M1362.24 1004.76C1443.59 622.022 1199.11 245.771 816.167 164.375C638.45 126.6 462.146 158.968 316.087 242.766C432.773 177.832 572.586 153.192 713.497 183.144C1022.83 248.895 1220.33 552.828 1154.61 861.998C1088.89 1171.17 784.855 1368.5 475.519 1302.75C166.183 1236.99 -31.3092 933.061 34.4068 623.891C64.3415 483.059 143.727 365.434 250.539 285.309C114.539 384.579 13.2465 532.378 -24.507 709.994C-105.859 1092.73 138.625 1468.98 521.564 1550.37C904.502 1631.77 1280.89 1387.49 1362.24 1004.76Z" fill="#F5F7F8"/>
<path fill-rule="evenodd" clip-rule="evenodd" d="M608.704 201.458C843.263 251.315 993.015 481.777 943.185 716.21C893.355 950.642 662.812 1100.27 428.254 1050.41C193.695 1000.56 43.9432 770.094 93.7733 535.662C143.603 301.229 374.146 151.601 608.704 201.458ZM688.034 541.787C718.559 398.178 626.824 257.001 483.138 226.46C339.452 195.918 198.226 287.578 167.701 431.187C137.176 574.795 228.911 715.972 372.597 746.513C516.283 777.055 657.509 685.395 688.034 541.787Z" fill="#F5F7F8"/>
</svg>
