<svg width="161" height="39" viewBox="0 0 161 39" fill="none" xmlns="http://www.w3.org/2000/svg">
<g clip-path="url(#clip0_9111_6606)">
<path d="M151.447 13.9005C155.096 13.9005 158.048 10.9795 158.048 7.40944C158.048 6.21941 157.726 5.08348 157.135 4.10983C157.457 4.81302 157.618 5.6244 157.618 6.43578C157.618 9.57312 155.042 12.1154 151.876 12.1154C148.71 12.1154 146.134 9.57312 146.134 6.43578C146.134 4.00164 147.69 1.94615 149.837 1.13477C146.992 1.83796 144.899 4.38029 144.899 7.40944C144.899 10.9795 147.851 13.9005 151.447 13.9005Z" fill="#F6C07A"/>
<path d="M150.267 18.8241C155.365 18.8241 159.551 14.7131 159.551 9.68256C159.551 7.35661 158.692 5.24702 157.243 3.62426C158.37 5.03065 159.068 6.7616 159.068 8.70891C159.068 13.1445 155.419 16.7686 150.911 16.7686C146.403 16.7686 142.753 13.1445 142.753 8.70891C142.753 4.27336 146.403 0.6492 150.911 0.6492C151.501 0.6492 152.145 0.703292 152.682 0.865568C151.93 0.6492 151.125 0.541016 150.267 0.541016C145.168 0.541016 140.982 4.65201 140.982 9.68256C140.982 14.7131 145.115 18.8241 150.267 18.8241Z" fill="#F3985A"/>
<path d="M149.032 23.6382C155.633 23.6382 161 18.3372 161 11.8461C161 8.87109 159.873 6.16649 158.048 4.0569C159.497 5.84193 160.356 8.1138 160.356 10.5479C160.356 16.2817 155.633 20.9877 149.783 20.9877C143.934 20.9877 139.211 16.3358 139.211 10.5479C139.211 4.7601 143.934 0.108184 149.783 0.108184C150.32 0.108184 150.857 0.162276 151.34 0.216368C150.588 0.054092 149.837 0 149.032 0C142.431 0 137.064 5.30102 137.064 11.7921C137.064 18.2831 142.485 23.6382 149.032 23.6382Z" fill="#EB721D"/>
<path d="M12.88 4.27344V27.8575H12.6653C6.97665 27.8575 3.64933 23.8006 3.64933 19.311C3.64933 15.2541 6.60099 11.1972 11.5383 10.9268V7.41077C4.02499 7.73533 0 13.7395 0 19.311C0 25.9102 5.15199 31.2653 12.397 31.2653H12.8263V34.5109H16.3146V10.8186H16.4756C22.1106 10.8186 25.4916 14.8755 25.4916 19.3651C25.4916 23.4761 22.4863 27.533 17.549 27.7494V31.2653C25.1696 30.9408 29.0873 24.8825 29.0873 19.3651C29.0873 12.7659 24.0963 7.41077 16.583 7.41077H16.2073V4.27344H12.88ZM60.4822 33.4831L63.0582 12.225L68.6395 30.7785C69.1762 32.4554 69.6592 33.8618 71.3229 33.8618C72.9865 33.8618 73.4695 32.4554 74.0062 30.7785L79.5875 12.225L82.1635 33.4831H85.8128L82.9685 10.6022C82.8075 9.19581 82.3782 6.92395 79.9095 6.92395C77.8165 6.92395 77.1725 8.81716 76.6358 10.5481L71.4302 27.8575L66.2245 10.5481C65.6879 8.81716 65.0975 6.92395 62.9509 6.92395C60.4822 6.92395 60.0529 9.19581 59.8919 10.6022L57.0476 33.4831H60.4822ZM34.5613 22.3402C31.3949 22.3402 28.8189 24.9366 28.8189 28.128C28.8189 31.3735 31.3949 33.9159 34.5613 33.9159C37.7276 33.9159 40.3036 31.3194 40.3036 28.128C40.3036 24.9366 37.7813 22.3402 34.5613 22.3402ZM34.5613 24.2875C36.7616 24.2875 38.2106 25.9102 38.2106 28.128C38.2106 30.3999 36.7079 31.9685 34.5613 31.9685C32.4146 31.9685 30.9119 30.3999 30.9119 28.128C30.9119 25.8561 32.4146 24.2875 34.5613 24.2875ZM44.0602 38.7841V29.0476C44.0602 25.1529 46.2069 24.2875 47.8169 24.2875C49.9099 24.2875 51.5736 25.8561 51.5736 28.2362C51.5736 30.454 50.0172 31.9685 47.7096 31.9685C46.7972 31.9685 45.8849 31.644 44.8652 30.7244V32.834C45.6702 33.5372 46.8509 33.9159 47.9242 33.9159C50.7686 33.9159 53.6129 31.8604 53.6129 28.2903C53.6129 24.6661 50.8222 22.3402 47.7632 22.3402C45.2409 22.3402 42.0209 23.6925 42.0209 28.8853V38.7841H44.0602ZM98.2635 25.8561C97.1901 23.4761 95.0971 22.3402 92.9505 22.3402C89.7305 22.3402 87.2082 24.8284 87.2082 28.128C87.2082 30.5621 88.4962 32.4013 90.3745 33.3208C91.1795 33.6995 92.0382 33.9159 92.9505 33.9159C93.9701 33.9159 95.0435 33.6995 95.9021 33.1586C96.7608 32.6717 98.4781 31.3735 98.6928 28.723L96.6535 28.4526C96.5998 29.7508 95.9021 30.8867 94.9898 31.4276C94.3458 31.8063 93.6482 31.9144 92.8968 31.9144C92.1992 31.9144 91.5015 31.7522 90.9648 31.3735C90.0525 30.7785 89.3012 29.6426 89.3012 28.0739C89.3012 25.8561 90.7502 24.2334 92.8968 24.2334C93.7018 24.2334 94.6141 24.3957 95.4728 25.3152L90.0525 28.3985L90.8575 30.0212L98.2635 25.8561ZM108.836 30.7244C107.923 31.5899 106.957 31.9685 105.669 31.9685C103.469 31.9685 102.181 30.2917 102.181 28.2362C102.181 25.8561 103.898 24.2875 105.991 24.2875C106.528 24.2875 107.118 24.3957 107.601 24.612C109.694 25.6398 109.694 28.0198 109.694 29.2639V33.1045C109.694 36.1336 108.031 37.0532 105.884 37.0532C104.972 37.0532 104.006 36.8368 102.825 36.5123L102.342 38.3514C104.059 38.8923 105.24 39.0005 105.991 39.0005C108.084 39.0005 109.372 38.1891 110.124 37.4859C111.519 36.1336 111.734 34.4027 111.734 32.6176V29.2639C111.734 22.8811 107.601 22.3402 105.991 22.3402C102.825 22.3402 100.088 24.6661 100.088 28.2362C100.088 32.2931 103.254 33.9159 105.83 33.9159C106.957 33.9159 107.87 33.5913 108.836 32.834V30.7244ZM116.027 22.5565H113.988V32.4013C113.988 32.834 113.988 33.9159 115.168 33.9159C116.134 33.9159 116.51 32.9422 117.047 32.1308L121.018 26.1807C121.072 26.0725 121.34 25.6939 121.394 25.5316C121.394 25.5316 121.394 25.4775 121.447 25.4775C121.447 25.4775 121.447 25.4775 121.447 25.5316C121.447 25.5857 121.447 25.6939 121.447 25.9102V33.6995H123.487V23.7466C123.487 23.5843 123.487 22.3402 122.306 22.3402C121.34 22.3402 120.911 23.3138 120.374 24.1252L116.456 30.1294C116.403 30.1835 116.134 30.6162 116.081 30.7785C116.081 30.7785 116.081 30.8326 116.027 30.8326C116.027 30.8326 116.027 30.8326 116.027 30.7785C116.027 30.7244 116.027 30.6162 116.027 30.3999V22.5565ZM134.059 30.7244C133.254 31.5358 132.288 31.9685 131.161 31.9685C129.551 31.9685 127.351 30.9408 127.351 28.128C127.351 25.6939 129.068 24.2334 131.107 24.2334C132.61 24.2334 134.864 24.9366 134.864 28.6689V33.6454H136.903V28.723C136.903 24.0711 134.059 22.2861 131.161 22.2861C127.995 22.2861 125.258 24.612 125.258 28.2362C125.258 31.644 127.726 33.8618 130.839 33.8618C132.127 33.8618 133.147 33.4831 134.005 32.7799L134.059 30.7244Z" fill="#EB721D"/>
</g>
<defs>
<clipPath id="clip0_9111_6606">
<rect width="161" height="39" fill="white"/>
</clipPath>
</defs>
</svg>
