<svg width="341" height="75" viewBox="0 0 341 75" fill="none" xmlns="http://www.w3.org/2000/svg">
<path d="M302.984 43.6537C304.322 43.1854 305.304 42.1154 306.863 42.2736C307.167 42.4575 307.154 42.4856 307.238 42.8192C307.088 43.4193 307.035 44.0407 306.506 44.4255C306.524 44.648 306.392 44.8374 306.288 45.0249C305.927 45.3137 305.58 45.4894 305.129 45.5971C303.831 45.9066 302.125 45.8584 300.963 45.136C300.497 44.8461 300.146 44.4471 300.025 43.902C299.901 43.3453 299.988 42.856 300.295 42.3814C300.924 42.2941 301.657 42.2833 302.232 42.5877C302.666 42.8174 302.845 43.2046 302.984 43.6537Z" fill="#274B5C"/>
<path d="M166.613 42.3812C166.986 42.3277 167.317 42.2651 167.682 42.3854C167.839 42.5381 167.961 42.6906 168.026 42.9023C168.183 43.4171 168.089 43.8866 167.838 44.3544C167.475 45.0294 166.845 45.4868 166.118 45.702C164.616 46.1461 162.905 45.7469 161.567 45.0251C161.52 44.9153 161.475 44.8046 161.432 44.6931C161.173 44.0226 160.754 43.2236 161.062 42.5252C161.17 42.4631 161.284 42.411 161.405 42.379C161.955 42.2342 162.971 42.5195 163.457 42.8087C163.853 43.0444 164.096 43.4276 164.206 43.8663C165.118 43.3215 165.513 42.6885 166.613 42.3812Z" fill="#274B5C"/>
<path d="M214.331 21.2095C214.794 21.1643 215.442 21.0714 215.893 21.1745C216.347 21.2786 217.064 22.0589 217.455 22.0075C218.364 21.8879 219.298 21.1788 220.271 21.0331C220.716 20.9664 220.921 21.0255 221.268 21.2834C221.43 21.6007 221.373 21.9205 221.3 22.2563C221.193 22.7515 220.985 23.1463 220.554 23.4227C220.52 23.5541 220.463 23.6856 220.375 23.7907C219.93 24.3258 219.204 24.6485 218.528 24.7282C217.348 24.8669 216.08 24.3869 215.166 23.6592C214.689 23.2792 214.114 22.664 214.055 22.0319C214.017 21.6284 214.083 21.5046 214.331 21.2095Z" fill="#274B5C"/>
<path d="M202.936 25.1502C203.738 25.0974 204.536 25.0734 205.339 25.0586C205.405 25.1662 205.454 25.2851 205.49 25.4059C205.623 25.8528 205.676 38.0979 205.455 38.5026L204.902 38.61C204.122 38.626 203.337 38.5997 202.556 38.5893C202.833 37.8102 202.658 36.6149 202.649 35.7853C202.631 34.0957 202.235 26.0221 202.936 25.1502Z" fill="#274B5C"/>
<path d="M252.013 46.1783C253.103 46.0509 254.617 46.0959 255.622 46.5737C256.061 46.7825 256.43 47.1179 256.591 47.5866C256.803 48.1992 256.603 49.3111 256.328 49.8847C256.212 49.8061 256.083 49.7329 255.95 49.687C254.33 49.1297 252.3 48.9392 250.719 49.7201C249.806 50.1711 249.092 50.9433 248.773 51.9152C248.442 52.9217 248.584 54.0602 249.056 54.9987C249.873 56.6265 251.319 57.1981 252.94 57.7379C254.218 57.5604 255.311 56.7069 256.551 56.5516L256.74 56.7154L256.628 57.1282C256.689 57.2435 256.74 57.3667 256.766 57.4949C256.885 58.0667 256.997 58.882 256.649 59.3862C256.279 59.9228 255.543 60.0517 254.941 60.1531C252.729 60.5259 250.374 60.433 248.501 59.0883C246.986 58.0005 245.993 56.4726 245.697 54.628C245.383 52.6705 245.616 50.6142 246.807 48.9811C248.135 47.1595 249.877 46.5132 252.013 46.1783Z" fill="#274B5C"/>
<path d="M141.438 25.2959C142.396 25.1196 143.487 25.2146 144.463 25.2208C146.737 25.2352 149.072 25.3495 151.336 25.1562C151.412 25.2668 151.477 25.389 151.516 25.5182C151.711 26.1704 151.657 27.1374 151.326 27.7353L144.324 27.7248C144.343 27.7546 144.359 27.7846 144.374 27.8166C144.679 28.4805 144.585 29.532 144.317 30.187C146.212 30.1814 148.111 30.1986 150.004 30.1235C150.078 30.2543 150.143 30.3917 150.187 30.5354C150.379 31.1706 150.334 32.1053 150.016 32.6911C148.583 32.6742 145.887 32.385 144.553 32.8428L144.213 33.763C144.295 33.8736 144.356 33.9894 144.398 34.1203C144.617 34.7951 144.586 35.4703 144.261 36.1005C146.674 36.0795 149.098 36.1644 151.508 36.0521C151.528 36.091 151.547 36.1292 151.564 36.1696C151.84 36.8419 151.786 37.9236 151.512 38.589L141.217 38.6185C141.786 37.6543 141.578 27.0192 141.438 25.2959Z" fill="#274B5C"/>
<path d="M262.658 46.3201C263.513 46.2256 264.338 46.2529 265.197 46.2983C265.287 46.4213 265.367 46.5615 265.407 46.7094C265.671 47.6736 265.74 50.4918 265.272 51.3312C266.619 50.6181 267.877 48.8276 268.923 47.7369C270.279 46.3237 271.607 46.2637 273.456 46.2266C273.458 46.3038 273.454 46.3801 273.441 46.4563C273.221 47.7445 269.279 51.7568 268.111 52.5687C269.035 53.6259 272.496 56.9446 272.792 58.0008C273.195 58.1846 273.614 58.5257 273.956 58.8066C274.275 59.068 274.396 59.2158 274.437 59.6209L274.213 59.8422C273.076 60.1975 271.969 60.0108 270.812 59.8863C270.81 59.8761 270.807 59.8658 270.805 59.8557C270.775 59.7564 265.687 54.281 265.324 54.0673C265.377 54.1814 265.423 54.2982 265.462 54.4178C265.765 55.3458 265.646 59.262 265.237 60.0703C264.287 59.9362 263.291 59.9827 262.332 59.9777C262.357 59.9297 262.374 59.8809 262.394 59.8308C262.474 59.6207 262.687 47.4864 262.658 46.3201Z" fill="#274B5C"/>
<path d="M177.186 46.3231C177.896 46.2597 178.648 46.315 179.363 46.3224C179.432 46.4271 179.498 46.5487 179.535 46.6692C179.82 47.6013 179.917 50.4875 179.466 51.3444C181.296 50.6537 182.123 48.4953 183.44 47.2511C184.647 46.1112 186.242 46.3288 187.757 46.3756C187.759 46.4667 187.747 46.5527 187.734 46.6424C187.582 47.6306 183.288 52.1319 182.292 52.8557C183.064 53.254 186.917 57.1848 187.251 58.0556C187.604 58.2287 187.953 58.5601 188.215 58.854C188.503 59.1776 188.724 59.5597 188.701 60.0027C187.462 60.0964 186.275 60.0345 185.04 59.9416C185.039 59.9341 185.037 59.9264 185.035 59.9189C184.872 59.3251 179.889 54.3612 179.303 54.0141C179.886 55.3702 179.923 58.6795 179.438 60.0535L176.371 60.0122C177.161 58.7673 176.056 47.9417 176.782 46.4977C176.828 46.4051 177.08 46.357 177.186 46.3231Z" fill="#274B5C"/>
<path d="M213.59 46.322C215.936 46.0368 220.587 46.2282 223.058 46.3244C223.138 46.4477 223.199 46.5801 223.24 46.7215C223.39 47.2539 223.327 58.0967 223.244 59.4189C223.23 59.6471 223.164 59.8454 223.055 60.0452C222.089 60.1499 221.071 60.0578 220.1 60.0288C220.147 59.9496 220.193 59.8614 220.21 59.7701C220.419 58.684 220.344 49.8691 219.944 49.2515C218.709 49.101 217.424 49.1738 216.181 49.1795C216.208 49.2228 216.206 49.2164 216.225 49.2558C216.233 49.271 216.24 49.2864 216.248 49.3015C216.261 49.3265 216.275 49.3508 216.287 49.3761C216.858 50.5573 216.123 56.211 215.66 57.4819C215.263 58.5684 214.638 59.3991 213.572 59.8951C213.089 60.0593 212.046 60.2386 211.57 60.0601C211.141 59.8996 210.754 59.592 210.564 59.1695C210.417 58.8412 210.398 58.4557 210.529 58.1191C210.952 57.0283 211.869 57.0965 212.802 56.6869C212.807 56.678 212.813 56.6692 212.818 56.6601C213.813 54.8497 213.76 48.4784 213.59 46.322Z" fill="#274B5C"/>
<path d="M123.475 25.2956C124.697 25.0956 126.078 25.2141 127.321 25.2185C129.875 25.2275 132.439 25.2763 134.991 25.1864C135.046 25.2756 135.089 25.3699 135.121 25.4693C135.28 25.9597 135.262 36.469 135.171 37.9239C135.156 38.1547 135.081 38.37 134.977 38.5749C133.911 38.5513 132.84 38.6004 131.775 38.6256C131.863 38.4938 131.937 38.346 131.973 38.1913C132.181 37.3018 132.172 31.6062 131.771 30.9915C131.826 30.9187 131.87 30.8404 131.905 30.7567C132.155 30.156 132.157 28.3862 131.921 27.8106C130.136 27.628 128.299 27.7094 126.505 27.7144C126.509 27.7232 126.514 27.7319 126.519 27.7409C126.526 27.7558 126.533 27.7713 126.54 27.7861C126.595 27.8931 126.65 27.994 126.686 28.1095C126.946 28.9256 126.818 37.9703 126.487 38.5938C125.478 38.4784 124.41 38.5365 123.393 38.5266C123.464 38.4184 123.524 38.3047 123.568 38.1824C123.839 37.4082 123.787 25.9707 123.475 25.2956Z" fill="#274B5C"/>
<path d="M157.23 25.1494C159.697 25.1168 165.202 24.6216 166.987 26.3384C167.7 27.0235 168.018 27.955 168.029 28.9263C168.042 30.0783 167.655 31.2093 166.843 32.0395C165.543 33.3692 163.966 33.4379 162.226 33.4584L159.744 33.552C159.813 33.6484 159.879 33.7576 159.923 33.868C160.243 34.6632 160.168 37.8158 159.831 38.5898C158.999 38.7769 157.887 38.6871 157.02 38.7238C157.762 37.5898 157.066 27.3653 157.23 25.1494ZM159.928 27.9236C160.084 28.7397 160.292 30.0317 159.818 30.7598C160.763 30.718 163.834 30.9199 164.465 30.4058C164.819 29.8994 164.902 29.4325 164.795 28.8233C164.752 28.5745 164.695 28.3222 164.594 28.09C163.167 27.6999 161.398 27.8797 159.928 27.9236Z" fill="#274B5C"/>
<path d="M145.224 46.3213C146.109 46.2325 146.991 46.3187 147.866 46.4564C147.927 46.5109 147.983 46.5702 148.035 46.6343C148.334 47.0165 152.833 57.8935 153.276 59.1537C153.381 59.4535 153.43 59.7204 153.39 60.0397C152.315 60.091 151.297 60.0117 150.233 59.8708C150.234 59.8418 150.235 59.8416 150.234 59.8084C150.208 58.9763 149.4 57.6219 148.793 57.0653C148.463 56.7632 147.732 56.8789 147.312 56.9014C146.572 56.9063 144 56.6438 143.579 57.3348C143.341 57.7248 143.191 58.359 142.985 58.7909C142.775 59.2317 142.594 59.6712 142.216 59.9965L142.187 60.021C141.155 60.1188 140.047 59.9902 139.01 59.9453C140.232 58.9682 144.006 47.0027 145.224 46.3213ZM146.256 50.5552C146.322 51.4484 145.099 53.7689 144.52 54.4379C144.492 54.4703 144.464 54.5018 144.434 54.5325C145.024 54.5013 145.707 54.401 146.29 54.4626C146.876 54.4814 147.473 54.4773 148.055 54.5605C147.8 53.6578 146.99 51.4021 146.558 50.6301L146.256 50.5552Z" fill="#274B5C"/>
<path d="M198.222 46.4683C199.197 46.2777 200.202 46.3461 201.188 46.3804C201.311 46.478 201.428 46.6003 201.504 46.7374C202.369 48.2909 203.55 51.6615 204.266 53.4174C205.016 55.2556 205.971 57.1016 206.58 58.9847C206.696 59.3448 206.759 59.6521 206.664 60.0288C205.775 60.2414 204.565 60.0182 203.654 59.9385C203.636 59.2445 203.001 57.8485 202.499 57.3676C202.052 56.9396 201.61 57.0613 201.038 57.0697L196.799 57.044C196.818 57.1139 196.832 57.1843 196.832 57.257C196.829 57.7808 196.397 58.9582 196.052 59.303C195.144 60.2107 193.596 60.0264 192.42 60.02C193.17 59.2337 197.292 48.5846 198.222 46.4683ZM199.638 50.5561C199.611 51.4235 198.377 53.9906 197.758 54.604C198.354 54.6092 198.952 54.6006 199.546 54.6391C200.146 54.6032 200.757 54.5403 201.358 54.555C201.189 53.3448 200.494 51.7001 199.918 50.6168L199.638 50.5561Z" fill="#274B5C"/>
<path d="M190.764 25.1495L193.283 25.0391C193.331 25.1338 193.374 25.2343 193.407 25.3355C193.653 26.0944 193.663 28.8262 193.29 29.5484C194.636 29.3891 196.283 29.248 197.609 29.5267C198.871 29.792 199.986 30.6195 200.681 31.6965C200.762 31.8202 200.836 31.9475 200.904 32.0785C200.972 32.2095 201.034 32.3436 201.089 32.4807C201.143 32.6177 201.191 32.7571 201.232 32.899C201.273 33.0408 201.307 33.1842 201.334 33.3294C201.361 33.4746 201.38 33.6207 201.393 33.7678C201.405 33.9149 201.41 34.0622 201.408 34.2098C201.406 34.3574 201.397 34.5046 201.38 34.6512C201.363 34.7979 201.34 34.9435 201.309 35.0878C201.095 36.054 200.508 37.0217 199.669 37.5601C199.636 37.635 199.594 37.6877 199.536 37.7444C198.145 39.0887 192.202 38.5957 190.248 38.5783C190.724 37.5183 190.351 28.6416 190.408 26.7375C190.424 26.2249 190.361 25.5287 190.764 25.1495ZM193.416 32.0117C193.622 32.8208 193.677 35.1468 193.265 35.8475C193.244 35.8826 193.222 35.9164 193.199 35.9501C194.43 35.9523 196.382 36.1296 197.481 35.516C197.764 35.3485 197.959 35.2951 198.053 34.9512C198.194 34.4307 198.178 33.7151 197.899 33.2508C197.564 32.6944 196.914 32.3609 196.298 32.2172C195.401 32.0077 194.337 31.9036 193.416 32.0117Z" fill="#274B5C"/>
<path d="M297.845 46.3213C298.629 46.148 299.47 46.2405 300.266 46.28C300.337 46.4058 300.397 46.5398 300.439 46.678C300.807 47.8999 300.833 54.1138 300.306 55.1131C301.103 54.5398 301.657 53.4119 302.217 52.5998C303.549 50.6711 305.215 48.0459 307.084 46.6312C307.55 46.2786 308.066 45.9895 308.666 46.0731C308.93 46.2027 309.105 46.3455 309.234 46.6153C309.393 46.9507 309.449 47.3349 309.47 47.7032C309.55 49.1125 309.611 59.0335 309.35 59.7364C309.291 59.8952 309.012 59.9691 308.855 60.04C308.18 60.1994 307.236 60.0927 306.53 60.1006C306.604 59.9887 306.663 59.869 306.705 59.7414C307.056 58.6694 306.786 52.2067 306.291 51.2337C306.301 51.3963 306.299 51.5677 306.264 51.7279C306.038 52.788 301.098 59.2686 300.048 59.9477C299.222 60.0524 298.438 60.0716 297.605 60.0389C297.794 59.4468 297.956 47.6563 297.845 46.3213Z" fill="#274B5C"/>
<path d="M229.622 46.4688C230.466 46.2848 231.386 46.3504 232.247 46.3547C232.289 46.4184 232.327 46.4848 232.36 46.554C232.678 47.228 232.608 50.1265 232.357 50.8653C233.936 50.8416 235.878 50.6328 237.394 51.0723C238.528 51.4009 239.537 52.3238 240.096 53.3481C240.673 54.4083 240.842 55.8596 240.493 57.0185C240.262 57.7859 239.867 58.4878 239.142 58.8793C239.117 58.9453 239.096 58.9805 239.046 59.0315C237.503 60.6002 231.675 60.0919 229.555 60.1041C229.764 59.7139 229.584 48.0005 229.622 46.4688ZM232.458 53.6231C232.756 54.3454 232.887 56.4493 232.587 57.1726C232.538 57.2895 232.475 57.3978 232.397 57.4975C233.461 57.5305 236.08 57.6606 236.861 56.9148C236.867 56.9084 236.874 56.9018 236.88 56.8953C237.189 56.7527 237.411 56.7232 237.532 56.3793C237.71 55.8762 237.746 55.1256 237.506 54.6472C237.278 54.1935 236.815 53.9193 236.344 53.772C235.277 53.4372 233.562 53.4405 232.458 53.6231Z" fill="#274B5C"/>
<path d="M214.162 33.6636C215.649 32.7004 218.639 27.8141 220.156 26.135C221.161 25.0243 222.06 25.1075 223.445 25.0352C223.941 25.8681 223.816 35.9264 223.692 37.7143C223.662 38.1578 223.673 38.308 223.333 38.605C222.434 38.6956 221.462 38.6311 220.554 38.6397C220.616 38.5298 220.672 38.4095 220.706 38.2875C220.974 37.3254 220.765 30.8878 220.332 30.1494C220.339 30.2873 220.338 30.4245 220.319 30.5616C220.218 31.3089 215.179 37.9625 214.373 38.565C213.569 38.7811 212.453 38.6732 211.609 38.6948C211.613 38.6878 211.617 38.6809 211.621 38.6737C211.627 38.6617 211.631 38.6493 211.637 38.6373C212.434 36.9052 211.075 27.6597 211.943 25.1513C212.821 25.0391 213.743 25.1017 214.627 25.1133C214.719 25.2582 214.803 25.4259 214.83 25.597C215.104 27.3603 215.191 30.9826 214.717 32.6912C214.622 33.0336 214.366 33.3749 214.162 33.6636Z" fill="#274B5C"/>
<path d="M158.953 46.3207L161.338 46.2656C161.394 46.4084 161.437 46.555 161.467 46.7054C161.758 48.2264 161.795 52.9105 161.469 54.4025C161.402 54.704 161.211 54.9938 161.042 55.2467C161.946 54.6181 167.404 47.3648 167.678 46.3658C168.518 46.3424 169.356 46.309 170.194 46.2657C170.645 47.0952 170.576 58.2837 170.403 59.8365C170.096 60.1235 169.898 60.046 169.487 60.0518L167.242 59.9827C167.255 59.9571 167.269 59.9312 167.28 59.9047C167.45 59.5242 167.544 51.909 167.361 51.4454C167.361 51.5927 167.338 51.7361 167.291 51.8758C166.943 52.8877 161.745 59.6 161.001 59.9467C160.179 60.0416 159.329 60.0263 158.501 60.0479C158.768 59.2096 158.559 57.9064 158.535 57.0051C158.49 55.3349 158.194 47.7548 158.582 46.582C158.632 46.4347 158.816 46.3881 158.953 46.3207Z" fill="#274B5C"/>
<path d="M282.306 54.8255C283.209 54.2017 286.512 49.4981 287.358 48.3422C287.748 47.8105 288.192 46.9845 288.702 46.584C289.349 46.0749 290.425 46.2516 291.19 46.3475C291.23 46.4146 291.262 46.4832 291.294 46.5541C291.543 47.1087 291.52 59.2119 291.277 59.8454C290.933 60.0942 290.715 60.0303 290.298 60.0314L288.141 59.9978C288.218 59.8995 288.274 59.7906 288.311 59.6713C288.368 59.4807 288.417 52.7225 288.38 52.0721C288.369 51.8711 288.287 51.6671 288.193 51.4908C288.183 51.5883 288.166 51.6817 288.148 51.778C288.142 51.8097 288.137 51.8416 288.131 51.8732C287.957 52.7625 282.938 59.4053 282.118 59.9557C281.272 60.1363 280.265 60.048 279.396 60.058C280.127 58.6449 278.972 48.805 279.611 46.6224C279.667 46.4321 279.789 46.4147 279.956 46.3233C280.756 46.2691 281.524 46.2807 282.324 46.3346C282.328 46.3434 282.333 46.352 282.337 46.361C282.344 46.3758 282.35 46.3912 282.357 46.406C282.407 46.5109 282.457 46.6126 282.491 46.7239C282.741 47.5203 282.74 52.8844 282.616 53.9411C282.58 54.2494 282.448 54.5528 282.306 54.8255Z" fill="#274B5C"/>
<path d="M123.776 46.4685C125.428 46.0905 131.47 46.3879 133.569 46.3987C133.596 46.4433 133.62 46.4884 133.643 46.5354C133.95 47.1719 133.825 48.5701 133.586 49.2216C131.463 49.5086 128.648 49.2731 126.457 49.2795C126.477 49.3132 126.495 49.3468 126.512 49.3819C126.746 49.8574 126.675 50.5393 126.511 51.0279C126.644 51.0161 126.777 51.0057 126.911 50.9968C128.881 50.863 131.773 50.6498 133.355 52.0555C133.726 52.3851 134.227 52.9462 134.261 53.4571C134.323 53.5099 134.382 53.5668 134.438 53.6277C134.88 54.1159 134.963 55.1236 134.931 55.7619C134.873 56.9284 134.439 58.0544 133.563 58.8468C131.395 60.8064 126.385 60.0888 123.623 59.9542C123.771 59.7184 123.823 59.4428 123.834 59.1676C123.907 57.4969 123.705 55.7698 123.713 54.09C123.725 51.6894 124.281 48.7962 123.776 46.4685ZM126.593 53.623C126.898 54.5273 126.902 56.7243 126.6 57.6224C127.818 57.4624 130.001 57.5291 130.966 56.835C131.3 56.6953 131.6 56.639 131.739 56.2661C131.9 55.8312 131.92 55.2236 131.716 54.7992C131.497 54.3438 130.965 54.0563 130.507 53.9022C129.383 53.5242 127.771 53.4856 126.593 53.623Z" fill="#274B5C"/>
<path d="M173.323 25.1539C175.709 25.1059 178.986 24.8581 181.28 25.2864C182.085 25.4366 182.894 25.8046 183.364 26.5025C183.915 27.32 183.896 28.6107 183.711 29.5532C183.534 30.4513 182.998 30.8959 182.286 31.3816C182.86 31.5592 183.478 31.7618 183.893 32.2178C184.569 32.9602 184.92 34.0758 184.88 35.0684C184.851 35.796 184.647 36.619 184.096 37.1264C184.103 37.2607 184.016 37.4149 183.966 37.5386C182.401 39.1163 175.482 38.6216 173.041 38.6461C173.758 37.2962 172.591 26.6468 173.323 25.1539ZM177.16 32.7461L176.646 32.8264C176.065 33.6859 176.788 34.9617 176.347 35.8705C177.582 35.9665 178.958 36.141 180.183 35.9047C180.628 35.8485 181.091 35.881 181.394 35.4956C181.632 35.1926 181.824 34.819 181.771 34.4256C181.715 34.011 181.452 33.6533 181.124 33.4061C180.068 32.6108 178.41 32.7609 177.16 32.7461ZM176.399 27.6358C176.598 28.3622 176.697 29.6233 176.327 30.3025C177.241 30.2645 179.638 30.5137 180.377 30.1004C180.663 29.9536 180.794 29.9402 180.895 29.6176C181.037 29.1643 180.895 28.4862 180.673 28.0753C180.639 28.0114 180.597 27.9547 180.55 27.8996C179.218 27.6083 177.758 27.4796 176.399 27.6358Z" fill="#274B5C"/>
<path d="M106.244 12.8869C107.41 12.8534 108.526 12.8888 109.688 13.0087C109.786 13.149 109.866 13.3092 109.905 13.4771C110.211 14.7989 109.95 20.9369 109.945 22.6584L109.933 31.763C109.952 39.022 109.981 46.6977 105.89 53.0154C102.612 58.0764 97.7149 61.267 91.8403 62.5238C88.0077 63.3438 84.1261 63.0965 80.2337 63.1215C71.8769 63.1755 63.7693 63.9828 56.3858 59.1981C56.1123 59.019 55.8433 58.8334 55.5789 58.6412C55.3144 58.449 55.0548 58.2505 54.8001 58.0456C54.5452 57.8408 54.2956 57.6299 54.0511 57.4129C53.8066 57.1959 53.5675 56.9731 53.3338 56.7444C53.1001 56.5158 52.8721 56.2816 52.6499 56.0418C52.4276 55.8021 52.2113 55.5571 52.001 55.3068C51.7907 55.0565 51.5866 54.8013 51.3887 54.5411C51.1908 54.2808 50.9993 54.016 50.8143 53.7465C50.6293 53.4769 50.451 53.203 50.2793 52.9248C50.1076 52.6465 49.9428 52.3643 49.7849 52.078C49.627 51.7918 49.4762 51.5018 49.3324 51.2082C49.1886 50.9146 49.052 50.6177 48.9226 50.3175C48.7933 50.0172 48.6714 49.714 48.5568 49.4078C48.4422 49.1016 48.3352 48.7928 48.2356 48.4814C48.1361 48.17 48.0442 47.8563 47.9599 47.5404C47.8757 47.2245 47.7992 46.9068 47.7304 46.5872C47.206 47.6635 46.2605 48.7722 45.4108 49.6082C41.8613 53.1008 37.4948 53.5728 32.7697 53.5399C32.7274 53.507 32.6786 53.485 32.6311 53.4604C32.3775 53.0002 32.4499 38.2855 32.4121 36.3133C34.0191 36.4271 35.6874 36.3053 37.3015 36.3097C40.2982 36.318 43.3086 36.379 46.3055 36.4253C46.512 31.7499 46.5885 26.993 46.3018 22.3202C52.0596 22.4739 57.8349 22.3129 63.5956 22.384C63.6134 23.999 63.6493 25.6463 63.3914 27.245C62.8404 30.6602 61.2606 34.3708 58.3935 36.4483C61.3712 36.1353 64.9321 36.4253 67.9771 36.4256C72.8753 36.426 77.8721 36.2156 82.761 36.4531C83.157 35.7687 83.2521 33.5863 83.3898 32.7295C84.1653 27.9102 86.1701 23.3717 89.4341 19.7117C93.5902 15.0518 100.231 13.2255 106.244 12.8869ZM105.363 16.537C100.267 16.9065 95.0224 18.8069 91.604 22.7534C88.8493 25.9337 86.843 30.7924 86.5107 35.012C86.4249 36.1014 86.7416 38.6569 86.2323 39.531C86.225 39.5435 86.2186 39.5567 86.2112 39.5693C86.2073 39.5769 86.2019 39.5841 86.197 39.5915C79.3984 39.5239 72.5997 39.506 65.8008 39.5379C60.5736 39.5391 55.2768 39.3489 50.0686 39.8366C50.0727 44.9804 51.8196 50.3414 55.5177 54.0376C55.8141 54.3321 56.1158 54.6211 56.423 54.9046C62.8742 59.9847 69.7235 60.1406 77.5971 60.141C80.8915 60.1412 84.128 60.1735 87.4053 59.7831C92.749 59.1463 98.2845 57.1128 101.717 52.7512C107.597 45.2779 106.424 36.1655 106.384 27.2891C106.369 23.959 106.69 20.4372 106.284 17.1309C106.257 16.9121 106.226 16.7405 106.109 16.5485C105.854 16.4436 105.625 16.4955 105.363 16.537ZM37.8485 39.5947C37.2177 39.6324 36.5698 39.7019 35.9388 39.6986C35.9527 43.2234 35.6786 46.6672 35.8404 50.2047C38.0269 49.8117 40.3933 49.3085 42.1296 47.8265C44.6409 45.44 45.6224 43.0108 46.3698 39.6745C43.5305 39.5228 40.6901 39.4962 37.8485 39.5947ZM49.682 25.7979C49.7011 29.196 49.4552 32.7705 49.8274 36.1409C52.5317 35.7331 55.0369 34.9725 57.0215 32.9662C58.7722 30.832 59.5965 28.4929 60.2301 25.85C56.7144 25.764 53.1984 25.7467 49.682 25.7979Z" fill="#274B5C"/>
<path d="M98.6538 24.2756C99.9958 24.0864 101.403 24.1014 102.553 24.9024C103.398 25.4914 103.918 26.4098 104.094 27.4158C104.271 28.4248 104.11 29.5113 103.509 30.3569C102.922 31.1827 102.208 31.5207 101.247 31.6892C100.671 31.9422 99.1645 31.8335 98.5504 31.6314C97.7288 31.3611 97.0573 30.7228 96.6725 29.9569C96.1799 28.9763 96.0706 27.7535 96.4147 26.7084C96.8103 25.5067 97.5597 24.8287 98.6538 24.2756ZM99.9395 26.6115C99.5596 26.774 99.1155 26.9238 98.9528 27.3375C98.8033 27.7187 98.7356 28.1258 98.9033 28.5134C99.0439 28.8401 99.2969 29.0828 99.6302 29.2072C99.8076 29.2735 100.002 29.3085 100.188 29.3407C100.649 29.2864 100.996 29.2637 101.321 28.9062C101.53 28.5047 101.639 28.1375 101.492 27.691C101.359 27.2888 101.035 26.8978 100.65 26.7131C100.417 26.6012 100.193 26.5899 99.9395 26.6115Z" fill="#274B5C"/>
<path d="M95.0297 43.8987C96.0802 43.9303 97.133 43.9325 98.1839 43.9481C98.2261 44.0963 98.2555 44.247 98.2722 44.4002C98.3452 45.0905 98.3251 46.5186 97.8898 47.0533C97.933 47.2021 97.9585 47.3588 97.9545 47.5141C97.8962 49.7563 96.1243 52.4161 94.5768 53.9271C91.2614 57.1659 87.4807 57.4204 83.0938 57.3673C83.2281 57.1523 83.3187 56.9231 83.3339 56.6679C83.4227 55.1885 83.3045 53.6549 83.3158 52.1689C83.3315 50.0674 83.6815 45.865 83.2712 43.9857C84.2162 43.8363 85.3098 43.9267 86.273 43.9147C86.2999 43.9559 86.3259 43.9975 86.3489 44.041C86.694 44.693 86.7817 53.1857 86.5126 54.0324C87.2577 53.8548 87.9807 53.6391 88.6978 53.3702C91.0908 52.4724 92.9539 51.0299 94.0224 48.6623C94.4665 47.6786 95.4111 44.9008 95.0297 43.8987Z" fill="#274B5C"/>
</svg>
