<svg width="52" height="43" viewBox="0 0 52 43" fill="none" xmlns="http://www.w3.org/2000/svg">
<path d="M30.8676 3.33518C33.0837 1.11173 36.0122 0 39.653 0C43.2938 0 46.2222 1.19113 48.4384 3.5734C50.8128 5.79686 52 9.37026 52 14.2936C52 19.0582 49.9422 24.5374 45.8265 30.7313C41.7108 36.9252 37.3577 40.9751 32.7671 42.8809C32.1339 43.1985 31.1842 42.8809 29.9178 41.928C28.8097 40.8163 28.2557 39.8633 28.2557 39.0693C32.8463 36.0517 36.0913 31.2078 37.9909 24.5374C34.825 24.2198 32.2922 22.9492 30.3927 20.7258C28.4932 18.3435 27.5434 15.4054 27.5434 11.9114C27.5434 8.41736 28.6514 5.55863 30.8676 3.33518ZM3.3242 3.33518C5.54033 1.11173 8.4688 0 12.1096 0C15.7504 0 18.6788 1.19113 20.895 3.5734C23.1111 5.79686 24.2192 9.37026 24.2192 14.2936C24.2192 19.0582 22.1613 24.5374 18.0457 30.7313C14.0883 36.9252 9.81431 40.9751 5.22374 42.8809C4.59056 43.1985 3.64079 42.8809 2.37443 41.928C1.26636 40.8163 0.712328 39.8633 0.712328 39.0693C5.30289 36.0517 8.54795 31.2078 10.4475 24.5374C7.28158 24.2198 4.74886 22.9492 2.84931 20.7258C0.949772 18.3435 0 15.4054 0 11.9114C0 8.41736 1.10807 5.55863 3.3242 3.33518Z" fill="#F38600"/>
</svg>
