<svg width="341" height="75" viewBox="0 0 341 75" fill="none" xmlns="http://www.w3.org/2000/svg">
<g clip-path="url(#clip0_9111_6535)">
<path d="M31.2075 25.0764C30.7865 24.5215 30.2602 24.0776 29.7339 23.8001C28.6288 23.1897 27.4184 23.1897 26.2606 23.8001C25.6817 24.0776 25.208 24.5215 24.787 25.0764C24.366 25.6314 23.9976 26.2973 23.7345 27.1297C23.4714 27.9065 23.3135 28.7944 23.3135 29.8488V46.1081C23.3135 47.1625 23.4714 48.1058 23.6819 48.8827C23.945 49.6596 24.3134 50.3811 24.7344 50.936C25.1554 51.4909 25.6817 51.9348 26.2606 52.2123C26.8395 52.4897 27.4184 52.6562 27.9972 52.6562C28.5761 52.6562 29.2077 52.4897 29.7339 52.2123C30.3128 51.9348 30.7865 51.4909 31.2601 50.936C31.6811 50.3811 32.0495 49.7151 32.3126 48.8827C32.5758 48.1058 32.681 47.1625 32.681 46.1081V44.9982C32.681 43.9994 32.1021 43.6664 31.5232 43.6664H30.6812C30.1549 43.6664 29.5234 43.9994 29.5234 44.9982V46.3856C29.5234 47.2734 29.3655 47.9393 29.0498 48.3278C28.734 48.7162 28.4183 48.8827 27.9972 48.8827C27.5762 48.8827 27.2078 48.7162 26.8921 48.3278C26.629 47.8838 26.4711 47.2734 26.4711 46.3856V29.6268C26.4711 28.7389 26.629 28.073 26.9447 27.6291C27.2605 27.2406 27.5762 27.0742 28.0499 27.0742C28.4709 27.0742 28.7866 27.2406 29.1024 27.6291C29.4182 28.0175 29.576 28.6834 29.576 29.6268V30.5702C29.576 31.5691 30.1549 31.902 30.7338 31.902H31.5232C31.839 31.902 32.1548 31.7355 32.3653 31.5136C32.5758 31.2916 32.681 30.9586 32.681 30.5702V29.8488C32.681 28.8499 32.5758 27.9065 32.3126 27.1297C31.9969 26.2973 31.6285 25.6314 31.2075 25.0764Z" fill="#5083F3"/>
<path d="M45.7722 23.5785H44.7723C44.1935 23.5785 43.7724 23.9669 43.6671 24.5774L40.878 37.5626C40.8253 37.84 40.7727 38.062 40.72 38.2285C40.72 38.0065 40.72 37.7291 40.72 37.4516V24.9103C40.72 23.9114 40.1412 23.5785 39.5623 23.5785H38.7202C38.194 23.5785 37.5625 23.9114 37.5625 24.9103V50.9918C37.5625 51.9906 38.1414 52.3236 38.7202 52.3236H39.7202C40.2991 52.3236 40.72 51.9351 40.8253 51.3247L43.6146 38.2285C43.6671 38.0065 43.7198 37.7846 43.7724 37.5626C43.7724 37.7846 43.7724 38.0065 43.7724 38.284V50.9363C43.7724 51.9351 44.3513 52.2681 44.9302 52.2681H45.7722C46.2985 52.2681 46.93 51.9351 46.93 50.9363V24.8548C46.93 23.9669 46.3511 23.5785 45.7722 23.5785Z" fill="#5083F3"/>
<path d="M59.6608 37.6736C59.2397 37.1187 58.7135 36.6747 58.1346 36.3972C57.5557 36.1198 56.9768 35.9533 56.3978 35.9533H55.0822C55.0296 35.9533 55.0296 35.9533 55.0296 35.9533C55.0296 35.9533 54.977 35.8423 54.977 35.7313V27.5739C54.977 27.4075 54.977 27.352 54.977 27.352C54.977 27.352 54.977 27.352 55.0296 27.352H59.1344C59.6608 27.352 60.2922 27.019 60.2922 26.0202V24.9103C60.2922 23.9114 59.7133 23.5785 59.1344 23.5785H52.9772C52.4509 23.5785 51.8193 23.9114 51.8193 24.9103V50.9918C51.8193 51.9907 52.3982 52.3236 52.9772 52.3236H56.3978C56.9768 52.3236 57.5557 52.1571 58.1346 51.8797C58.7135 51.5467 59.1871 51.1028 59.6608 50.5479C60.0817 49.9929 60.4501 49.2715 60.7133 48.4391C60.9764 47.6068 61.0817 46.6634 61.0817 45.6645V42.5015C61.0817 41.4471 60.9238 40.5037 60.7133 39.7268C60.4501 38.8944 60.0817 38.2285 59.6608 37.6736ZM55.0296 39.7268C55.0296 39.7268 55.0296 39.7268 55.0822 39.7268H56.3978C56.8189 39.7268 57.1346 39.8933 57.4505 40.2817C57.7662 40.6701 57.9241 41.3361 57.9241 42.224V45.8865C57.9241 46.7744 57.7662 47.4403 57.4505 47.8287C57.1346 48.2172 56.8189 48.3836 56.3978 48.3836H55.0822C55.0296 48.3836 55.0296 48.3836 55.0296 48.3836C55.0296 48.3836 54.977 48.2726 54.977 48.1617V39.9488C54.977 39.7823 55.0296 39.7268 55.0296 39.7268Z" fill="#5083F3"/>
<path d="M74.1746 23.5785H73.1747C72.5958 23.5785 72.1748 23.9669 72.0696 24.5774L69.2803 37.5626C69.2277 37.84 69.175 38.062 69.1225 38.2285C69.1225 38.0065 69.1225 37.7291 69.1225 37.4516V24.9103C69.1225 23.9114 68.5436 23.5785 67.9646 23.5785H67.1227C66.5963 23.5785 65.9648 23.9114 65.9648 24.9103V50.9918C65.9648 51.9906 66.5438 52.3236 67.1227 52.3236H68.1225C68.7014 52.3236 69.1225 51.9351 69.2277 51.3247L72.0169 38.2285C72.0696 38.0065 72.1221 37.7846 72.1748 37.5626C72.1748 37.7846 72.1748 38.0065 72.1748 38.284V50.9363C72.1748 51.9351 72.7537 52.2681 73.3326 52.2681H74.1746C74.7008 52.2681 75.3324 51.9351 75.3324 50.9363V24.8548C75.3324 23.9669 74.7008 23.5785 74.1746 23.5785Z" fill="#5083F3"/>
<path d="M88.0582 25.2988C87.6372 24.7438 87.1109 24.2999 86.532 24.0224C85.9531 23.745 85.3742 23.5785 84.7953 23.5785H81.3746C80.8484 23.5785 80.2168 23.9114 80.2168 24.9103V50.9918C80.2168 51.9906 80.7957 52.3236 81.3746 52.3236H82.2166C82.7429 52.3236 83.3744 51.9906 83.3744 50.9918V39.8933C83.3744 39.7268 83.3744 39.6714 83.3744 39.6714C83.3744 39.6714 83.3744 39.6714 83.4271 39.6714H84.7953C85.3742 39.6714 85.9531 39.5049 86.532 39.2274C87.1109 38.9499 87.6372 38.5059 88.0582 37.951C88.4792 37.3961 88.8476 36.7302 89.1107 35.8979C89.3738 35.121 89.4791 34.1775 89.4791 33.1232V29.9601C89.4791 28.9058 89.3213 27.9624 89.1107 27.1855C88.795 26.5196 88.4792 25.8537 88.0582 25.2988ZM83.3744 27.352C83.3744 27.352 83.3744 27.352 83.4271 27.352H84.7953C85.2163 27.352 85.5321 27.5185 85.8479 27.9069C86.1636 28.2954 86.3215 28.9613 86.3215 29.8491V33.5116C86.3215 34.3995 86.1636 35.0655 85.8479 35.4539C85.5321 35.8424 85.2163 36.0088 84.7953 36.0088H83.4797C83.4271 36.0088 83.4271 36.0088 83.4271 36.0088C83.4271 36.0088 83.3744 35.8979 83.3744 35.7869V27.574C83.3744 27.4075 83.4271 27.352 83.3744 27.352Z" fill="#5083F3"/>
<path d="M102.205 37.6736C101.784 37.1187 101.257 36.6747 100.679 36.3973C100.1 36.1198 99.5207 35.9533 98.9418 35.9533H97.6261C97.5736 35.9533 97.5736 35.9533 97.5736 35.9533C97.5736 35.9533 97.5209 35.8424 97.5209 35.7314V24.9103C97.5209 23.9114 96.942 23.5785 96.3631 23.5785H95.5211C94.9948 23.5785 94.3633 23.9114 94.3633 24.9103V50.9918C94.3633 51.9906 94.9422 52.3236 95.5211 52.3236H98.9418C99.5207 52.3236 100.1 52.1571 100.679 51.8796C101.257 51.5467 101.731 51.1028 102.205 50.5478C102.626 49.9929 102.994 49.2715 103.257 48.4392C103.52 47.6067 103.626 46.6634 103.626 45.6645V42.5014C103.626 41.4471 103.468 40.5037 103.257 39.7268C102.994 38.8944 102.678 38.2285 102.205 37.6736ZM100.468 42.224V45.8865C100.468 46.7743 100.31 47.4402 99.9943 47.8287C99.6786 48.2172 99.3628 48.3837 98.9418 48.3837H97.6261C97.5736 48.3837 97.5736 48.3837 97.5736 48.3837C97.5736 48.3837 97.5209 48.2727 97.5209 48.1616V39.9488C97.5209 39.7823 97.5209 39.7268 97.5209 39.7268C97.5209 39.7268 97.5209 39.7268 97.5736 39.7268H98.8891C99.3102 39.7268 99.6259 39.8933 99.9417 40.2818C100.31 40.7257 100.468 41.3361 100.468 42.224Z" fill="#5083F3"/>
<path d="M214.348 25.0626C213.927 24.5076 213.402 24.0637 212.822 23.7862C212.243 23.5088 211.665 23.3423 211.086 23.3423H207.665C207.139 23.3423 206.507 23.6752 206.507 24.6741V50.7556C206.507 51.7544 207.086 52.0874 207.665 52.0874H208.507C209.033 52.0874 209.665 51.7544 209.665 50.7556V39.657C209.665 39.4906 209.665 39.4351 209.665 39.4351C209.665 39.4351 209.665 39.4351 209.718 39.4351H211.033C211.612 39.4351 212.19 39.2686 212.77 38.9911C213.349 38.7137 213.875 38.2698 214.296 37.7148C214.717 37.1599 215.085 36.494 215.349 35.6617C215.612 34.8847 215.717 33.9413 215.717 32.887V29.7239C215.717 28.6696 215.559 27.7262 215.349 26.9493C215.138 26.2834 214.769 25.6175 214.348 25.0626ZM209.718 27.3377C209.718 27.1713 209.718 27.1158 209.718 27.1158C209.718 27.1158 209.718 27.1158 209.77 27.1158H211.086C211.507 27.1158 211.822 27.2823 212.139 27.6707C212.454 28.0591 212.611 28.7251 212.611 29.6129V33.2754C212.611 34.1633 212.454 34.8292 212.139 35.2177C211.822 35.6062 211.507 35.7726 211.086 35.7726H209.77C209.718 35.7726 209.718 35.7726 209.718 35.7726C209.718 35.7726 209.665 35.6617 209.665 35.5507V27.3377H209.718Z" fill="#5083F3"/>
<path d="M230.708 49.9232L227.656 24.5076C227.55 23.7862 227.129 23.3423 226.498 23.3423H224.867C224.235 23.3423 223.814 23.7862 223.708 24.5076L220.656 49.9232C220.604 50.3117 220.604 50.5336 220.604 50.5891C220.604 50.7001 220.604 50.7556 220.604 50.8111C220.604 51.588 221.025 52.0874 221.761 52.0874H222.498C223.13 52.0874 223.551 51.6434 223.656 50.9221L224.235 45.8168C224.235 45.6503 224.287 45.6503 224.34 45.6503H227.182C227.182 45.6503 227.235 45.7058 227.235 45.8168L227.866 50.9221C227.971 51.6434 228.392 52.0874 229.023 52.0874H229.761C230.445 52.0874 230.919 51.588 230.919 50.8111C230.919 50.7556 230.919 50.7001 230.919 50.5891C230.76 50.5336 230.708 50.3117 230.708 49.9232ZM226.655 41.8768C226.655 41.9323 226.655 41.9878 226.655 41.9878C226.655 41.9878 226.603 41.9878 226.551 41.9878H224.761H224.708C224.708 41.9878 224.708 41.9323 224.708 41.8768C224.708 41.7658 224.708 41.4883 224.814 40.9889L225.603 34.1633C225.656 33.8858 225.656 33.6639 225.709 33.4974C225.761 33.7194 225.761 33.9413 225.813 34.1633L226.603 40.9889C226.655 41.4883 226.655 41.7103 226.655 41.8768Z" fill="#5083F3"/>
<path d="M243.697 37.4374C243.276 36.8825 242.75 36.4385 242.171 36.1611C241.593 35.8836 241.013 35.7172 240.434 35.7172H239.119C239.067 35.7172 239.067 35.7172 239.067 35.7172C239.067 35.7172 239.014 35.6062 239.014 35.4952V27.3377C239.014 27.1713 239.014 27.1158 239.014 27.1158C239.014 27.1158 239.014 27.1158 239.067 27.1158H243.066C243.592 27.1158 244.224 26.7828 244.224 25.784V24.6741C244.224 23.6752 243.644 23.3423 243.066 23.3423H236.961C236.435 23.3423 235.804 23.6752 235.804 24.6741V50.7556C235.804 51.7544 236.382 52.0874 236.961 52.0874H240.381C240.961 52.0874 241.54 51.9209 242.118 51.6435C242.698 51.3105 243.171 50.8666 243.644 50.3117C244.065 49.7567 244.435 49.0354 244.697 48.2029C244.96 47.3705 245.066 46.4272 245.066 45.4283V42.2652C245.066 41.2109 244.907 40.2675 244.697 39.4906C244.486 38.6582 244.118 37.9923 243.697 37.4374ZM239.067 39.4906C239.067 39.4906 239.067 39.4906 239.119 39.4906H240.434C240.855 39.4906 241.172 39.657 241.487 40.0456C241.803 40.434 241.961 41.0999 241.961 41.9878V45.6503C241.961 46.5382 241.803 47.204 241.487 47.5925C241.172 47.9809 240.855 48.1474 240.434 48.1474H239.119C239.067 48.1474 239.067 48.1474 239.067 48.1474C239.067 48.1474 239.014 48.0364 239.014 47.9254V39.7126C239.067 39.5461 239.067 39.4906 239.067 39.4906Z" fill="#5083F3"/>
<path d="M255.479 23.3423H253.742C252.006 23.3423 249.953 24.2302 249.953 28.3921V47.0376C249.953 51.1995 252.006 52.0874 253.742 52.0874H255.479C257.215 52.0874 259.268 51.1995 259.268 47.0376V28.4476C259.268 24.2302 257.215 23.3423 255.479 23.3423ZM256.163 28.1701V47.2595C256.163 48.3694 255.742 48.3694 255.531 48.3694H253.742C253.479 48.3694 253.11 48.3694 253.11 47.2595V28.1701C253.11 27.0603 253.531 27.0603 253.742 27.0603H255.479C255.742 27.1158 256.163 27.1158 256.163 28.1701Z" fill="#5083F3"/>
<path d="M272.832 23.3423H265.306C264.78 23.3423 264.148 23.6752 264.148 24.6741V25.7285C264.148 26.7273 264.728 27.0603 265.306 27.0603H267.359C267.411 27.0603 267.411 27.0603 267.411 27.0603C267.411 27.0603 267.464 27.1713 267.464 27.2823V50.7556C267.464 51.7544 268.043 52.0874 268.622 52.0874H269.464C269.99 52.0874 270.621 51.7544 270.621 50.7556V27.3377C270.621 27.1713 270.621 27.1158 270.621 27.1158C270.621 27.1158 270.621 27.1158 270.674 27.1158H272.832C273.359 27.1158 273.99 26.7828 273.99 25.784V24.6741C273.937 23.7307 273.359 23.3423 272.832 23.3423Z" fill="#5083F3"/>
<path d="M288.979 49.9232L285.926 24.5076C285.822 23.7862 285.401 23.3423 284.769 23.3423H283.137C282.506 23.3423 282.085 23.7862 281.98 24.5076L278.927 49.9232C278.874 50.3117 278.875 50.5336 278.875 50.5891C278.875 50.7001 278.875 50.7556 278.875 50.8111C278.875 51.588 279.295 52.0874 280.033 52.0874H280.769C281.4 52.0874 281.821 51.6434 281.927 50.9221L282.506 45.8168C282.506 45.6503 282.558 45.6503 282.611 45.6503H285.452C285.452 45.6503 285.505 45.7058 285.505 45.8168L286.137 50.9221C286.242 51.6434 286.663 52.0874 287.295 52.0874H288.031C288.715 52.0874 289.189 51.588 289.189 50.8111C289.189 50.7556 289.189 50.7001 289.189 50.5891C289.032 50.5336 289.032 50.3117 288.979 49.9232ZM284.927 41.8768C284.927 41.9323 284.927 41.9878 284.927 41.9878C284.927 41.9878 284.874 41.9878 284.821 41.9878H283.032H282.979C282.979 41.9878 282.979 41.9323 282.979 41.8768C282.979 41.7103 283.032 41.3774 283.084 40.9889L283.874 34.1633C283.927 33.8858 283.927 33.6639 283.979 33.4974C284.032 33.7194 284.032 33.9413 284.085 34.1633L284.874 40.9889C284.927 41.3774 284.927 41.6548 284.927 41.8768Z" fill="#5083F3"/>
<path d="M302.494 23.3423H295.231C294.705 23.3423 294.073 23.6752 294.073 24.6741V50.7556C294.073 51.7544 294.653 52.0874 295.231 52.0874H302.494C303.02 52.0874 303.652 51.7544 303.652 50.7556V49.7567C303.652 48.7579 303.072 48.4249 302.494 48.4249H297.283C297.231 48.4249 297.231 48.4249 297.231 48.4249C297.231 48.4249 297.179 48.3139 297.179 48.2029V39.7126C297.179 39.5461 297.179 39.4906 297.179 39.4906C297.179 39.4906 297.179 39.4906 297.231 39.4906H300.81C301.335 39.4906 301.968 39.1576 301.968 38.1588V37.1044C301.968 36.1056 301.388 35.7726 300.81 35.7726H297.231C297.179 35.7726 297.179 35.7726 297.179 35.7726C297.179 35.7726 297.126 35.6617 297.126 35.5507V27.3377C297.126 27.1713 297.126 27.1158 297.126 27.1158C297.126 27.1158 297.126 27.1158 297.179 27.1158H302.389C302.914 27.1158 303.546 26.7828 303.546 25.784V24.6741C303.599 23.7307 303.02 23.3423 302.494 23.3423Z" fill="#5083F3"/>
<path d="M317.216 23.3423H309.69C309.163 23.3423 308.532 23.6752 308.532 24.6741V25.7285C308.532 26.7273 309.111 27.0603 309.69 27.0603H311.742C311.795 27.0603 311.795 27.0603 311.795 27.0603C311.795 27.0603 311.848 27.1713 311.848 27.2823V50.7556C311.848 51.7544 312.426 52.0874 313.005 52.0874H313.848C314.374 52.0874 315.005 51.7544 315.005 50.7556V27.3377C315.005 27.1713 315.005 27.1158 315.005 27.1158C315.005 27.1158 315.005 27.1158 315.058 27.1158H317.216C317.741 27.1158 318.373 26.7828 318.373 25.784V24.6741C318.321 23.7307 317.741 23.3423 317.216 23.3423Z" fill="#5083F3"/>
<path d="M154.779 28.1287C156.937 30.2929 159.146 32.5681 161.357 34.7878C161.357 34.8433 161.304 34.9543 161.304 35.0098C155.989 35.0098 150.621 35.0098 145.253 35.0098C145.253 37.0075 145.253 38.8943 145.253 40.892C150.621 40.892 155.989 40.892 161.304 40.892C161.357 41.0029 161.41 41.1139 161.41 41.1694C159.199 43.4447 156.989 45.6643 154.884 47.8286C156.252 49.3268 157.515 50.6586 158.673 51.8794C163.094 47.2181 167.567 42.5012 171.988 37.8953C167.567 33.234 163.094 28.5171 158.778 23.9113C157.462 25.2431 156.199 26.5749 154.779 28.1287Z" fill="#5083F3"/>
<path d="M112.626 52.0998C121.625 52.0998 130.624 52.0998 139.571 52.0998C139.571 42.6106 139.571 33.2324 139.571 23.7431C130.572 23.7431 121.625 23.7431 112.626 23.7431C112.626 33.2324 112.626 42.6661 112.626 52.0998Z" fill="#5083F3"/>
<path d="M198.459 28.3489L191.091 32.8438V23.965H185.565V32.8438L178.25 28.3489L175.461 33.3432L182.829 37.8381L175.461 42.333L178.25 47.3273L185.565 42.8324V51.9332H191.091V42.8324L198.459 47.3273L201.195 42.333L193.828 37.8381L201.195 33.3432L198.459 28.3489Z" fill="#5083F3"/>
</g>
<defs>
<clipPath id="clip0_9111_6535">
<rect width="295.999" height="29.3139" fill="white" transform="translate(22.501 23.343)"/>
</clipPath>
</defs>
</svg>
