<svg width="53" height="53" viewBox="0 0 53 53" fill="none" xmlns="http://www.w3.org/2000/svg">
<rect width="53" height="53" rx="26.5" fill="white"/>
<rect x="0.5" y="0.5" width="52" height="52" rx="26" stroke="#EB721D" stroke-opacity="0.5"/>
<path d="M21.3832 17.5455V35H18.7411V20.1875H18.6388L14.4627 22.9148V20.392L18.8178 17.5455H21.3832ZM32.1815 35.2898C30.8349 35.2841 29.6843 34.929 28.7298 34.2244C27.7752 33.5199 27.0451 32.4943 26.5394 31.1477C26.0337 29.8011 25.7809 28.179 25.7809 26.2812C25.7809 24.3892 26.0337 22.7727 26.5394 21.4318C27.0508 20.0909 27.7837 19.0682 28.7383 18.3636C29.6985 17.6591 30.8462 17.3068 32.1815 17.3068C33.5167 17.3068 34.6616 17.6619 35.6161 18.3722C36.5707 19.0767 37.3008 20.0994 37.8065 21.4403C38.3178 22.7756 38.5735 24.3892 38.5735 26.2812C38.5735 28.1847 38.3207 29.8097 37.815 31.1562C37.3093 32.4972 36.5792 33.5227 35.6246 34.233C34.6701 34.9375 33.5224 35.2898 32.1815 35.2898ZM32.1815 33.0142C33.3633 33.0142 34.2866 32.4375 34.9513 31.2841C35.6218 30.1307 35.957 28.4631 35.957 26.2812C35.957 24.8324 35.8036 23.608 35.4968 22.608C35.1957 21.6023 34.761 20.8409 34.1928 20.3239C33.6303 19.8011 32.9599 19.5398 32.1815 19.5398C31.0053 19.5398 30.082 20.1193 29.4116 21.2784C28.7411 22.4375 28.4031 24.1051 28.3974 26.2812C28.3974 27.7358 28.5479 28.9659 28.8491 29.9716C29.1559 30.9716 29.5906 31.7301 30.1531 32.2472C30.7156 32.7585 31.3917 33.0142 32.1815 33.0142Z" fill="#EB721D"/>
</svg>
