<svg width="53" height="53" viewBox="0 0 53 53" fill="none" xmlns="http://www.w3.org/2000/svg">
<rect width="53" height="53" rx="26.5" fill="white"/>
<rect x="0.5" y="0.5" width="52" height="52" rx="26" stroke="#EB721D" stroke-opacity="0.5"/>
<path d="M21.3949 17.5455V35H18.7528V20.1875H18.6506L14.4744 22.9148V20.392L18.8295 17.5455H21.3949ZM32.1932 35.2386C31.0227 35.2386 29.9773 35.0369 29.0568 34.6335C28.142 34.2301 27.4176 33.6705 26.8835 32.9545C26.3551 32.233 26.071 31.3977 26.0312 30.4489H28.7074C28.7415 30.9659 28.9148 31.4148 29.2273 31.7955C29.5455 32.1705 29.9602 32.4602 30.4716 32.6648C30.983 32.8693 31.5511 32.9716 32.1761 32.9716C32.8636 32.9716 33.4716 32.8523 34 32.6136C34.5341 32.375 34.9517 32.0426 35.2528 31.6165C35.554 31.1847 35.7045 30.6875 35.7045 30.125C35.7045 29.5398 35.554 29.0256 35.2528 28.5824C34.9574 28.1335 34.5227 27.7812 33.9489 27.5256C33.3807 27.2699 32.6932 27.142 31.8864 27.142H30.4119V24.9943H31.8864C32.5341 24.9943 33.1023 24.8778 33.5909 24.6449C34.0852 24.4119 34.4716 24.0881 34.75 23.6733C35.0284 23.2528 35.1676 22.7614 35.1676 22.1989C35.1676 21.6591 35.0455 21.1903 34.8011 20.7926C34.5625 20.3892 34.2216 20.0739 33.7784 19.8466C33.3409 19.6193 32.8239 19.5057 32.2273 19.5057C31.6591 19.5057 31.1278 19.6108 30.6335 19.821C30.1449 20.0256 29.7472 20.321 29.4403 20.7074C29.1335 21.0881 28.9688 21.5455 28.946 22.0795H26.3977C26.4261 21.1364 26.7045 20.3068 27.233 19.5909C27.767 18.875 28.4716 18.3153 29.3466 17.9119C30.2216 17.5085 31.1932 17.3068 32.2614 17.3068C33.3807 17.3068 34.3466 17.5256 35.1591 17.9631C35.9773 18.3949 36.608 18.9716 37.0511 19.6932C37.5 20.4148 37.7216 21.2045 37.7159 22.0625C37.7216 23.0398 37.4489 23.8693 36.8977 24.5511C36.3523 25.233 35.625 25.6903 34.7159 25.9233V26.0597C35.875 26.2358 36.7727 26.696 37.4091 27.4403C38.0511 28.1847 38.3693 29.108 38.3636 30.2102C38.3693 31.1705 38.1023 32.0312 37.5625 32.7926C37.0284 33.554 36.2983 34.1534 35.3722 34.5909C34.446 35.0227 33.3864 35.2386 32.1932 35.2386Z" fill="#EB721D"/>
</svg>
