<svg width="53" height="53" viewBox="0 0 53 53" fill="none" xmlns="http://www.w3.org/2000/svg">
<rect width="53" height="53" rx="26.5" fill="white"/>
<rect x="0.5" y="0.5" width="52" height="52" rx="26" stroke="#EB721D" stroke-opacity="0.5"/>
<path d="M13.0735 35V33.0909L18.9798 26.9716C19.6104 26.3068 20.1303 25.7244 20.5394 25.2244C20.9542 24.7187 21.2638 24.2386 21.4684 23.7841C21.6729 23.3295 21.7752 22.8466 21.7752 22.3352C21.7752 21.7557 21.6388 21.2557 21.3661 20.8352C21.0934 20.4091 20.7212 20.0824 20.2496 19.8551C19.7781 19.6222 19.2468 19.5057 18.6559 19.5057C18.0309 19.5057 17.4854 19.6335 17.0195 19.8892C16.5536 20.1449 16.1957 20.5057 15.9457 20.9716C15.6957 21.4375 15.5707 21.983 15.5707 22.608H13.0565C13.0565 21.5455 13.3008 20.6165 13.7894 19.821C14.2781 19.0256 14.9485 18.4091 15.8008 17.9716C16.6531 17.5284 17.6218 17.3068 18.707 17.3068C19.8036 17.3068 20.7695 17.5256 21.6048 17.9631C22.4457 18.3949 23.1019 18.9858 23.5735 19.7358C24.0451 20.4801 24.2809 21.321 24.2809 22.2585C24.2809 22.9062 24.1587 23.5398 23.9144 24.1591C23.6758 24.7784 23.2582 25.4687 22.6616 26.2301C22.065 26.9858 21.2354 27.9034 20.1729 28.983L16.7042 32.6136V32.7415H24.5621V35H13.0735ZM33.869 35.2898C32.5224 35.2841 31.3718 34.929 30.4173 34.2244C29.4627 33.5199 28.7326 32.4943 28.2269 31.1477C27.7212 29.8011 27.4684 28.179 27.4684 26.2812C27.4684 24.3892 27.7212 22.7727 28.2269 21.4318C28.7383 20.0909 29.4712 19.0682 30.4258 18.3636C31.386 17.6591 32.5337 17.3068 33.869 17.3068C35.2042 17.3068 36.3491 17.6619 37.3036 18.3722C38.2582 19.0767 38.9883 20.0994 39.494 21.4403C40.0053 22.7756 40.261 24.3892 40.261 26.2812C40.261 28.1847 40.0082 29.8097 39.5025 31.1562C38.9968 32.4972 38.2667 33.5227 37.3121 34.233C36.3576 34.9375 35.2099 35.2898 33.869 35.2898ZM33.869 33.0142C35.0508 33.0142 35.9741 32.4375 36.6388 31.2841C37.3093 30.1307 37.6445 28.4631 37.6445 26.2812C37.6445 24.8324 37.4911 23.608 37.1843 22.608C36.8832 21.6023 36.4485 20.8409 35.8803 20.3239C35.3178 19.8011 34.6474 19.5398 33.869 19.5398C32.6928 19.5398 31.7695 20.1193 31.0991 21.2784C30.4286 22.4375 30.0906 24.1051 30.0849 26.2812C30.0849 27.7358 30.2354 28.9659 30.5366 29.9716C30.8434 30.9716 31.2781 31.7301 31.8406 32.2472C32.4031 32.7585 33.0792 33.0142 33.869 33.0142Z" fill="#EB721D"/>
</svg>
