<svg width="341" height="75" viewBox="0 0 341 75" fill="none" xmlns="http://www.w3.org/2000/svg">
<path fill-rule="evenodd" clip-rule="evenodd" d="M251.973 25.3747L251.496 22.1898C251.496 22.1898 250.62 22.1898 250.62 22.1898C250.62 22.1898 249.865 23.9232 249.865 23.9232C249.865 23.9232 249.115 22.1898 249.115 22.1898C249.115 22.1898 248.239 22.1898 248.239 22.1898L247.757 25.3749C247.757 25.3747 248.646 25.3749 248.646 25.3749C248.646 25.3747 248.891 23.5415 248.891 23.5415C248.892 23.5415 249.736 25.3801 249.736 25.3801C249.736 25.38 249.995 25.3801 249.995 25.3801C249.995 25.38 250.839 23.541 250.839 23.541C250.839 23.541 251.088 25.3749 251.088 25.3749C251.088 25.3747 251.973 25.3749 251.973 25.3747Z" fill="#006540"/>
<path fill-rule="evenodd" clip-rule="evenodd" d="M253.485 24.614V24.1372C253.485 24.1371 254.531 24.1372 254.531 24.1372C254.531 24.1371 254.531 23.4174 254.531 23.4174C254.531 23.4172 253.485 23.4174 253.485 23.4174C253.485 23.4172 253.485 22.9489 253.485 22.9489H254.649C254.649 22.9489 254.649 22.1898 254.649 22.1898C254.649 22.1898 252.611 22.1898 252.611 22.1898V25.3749C252.611 25.3747 254.687 25.3749 254.687 25.3749C254.688 25.3747 254.687 24.614 254.687 24.614C254.688 24.614 253.485 24.614 253.485 24.614Z" fill="#006540"/>
<path fill-rule="evenodd" clip-rule="evenodd" d="M258.175 24.5713V22.1898H255.85C255.721 23.8981 255.696 24.3435 255.49 24.5713C255.49 24.5713 255.198 24.5713 255.198 24.5713C255.198 24.5713 255.198 25.9496 255.198 25.9496H256.001V25.3749C256.001 25.3747 257.692 25.3749 257.692 25.3749C257.692 25.3747 257.692 25.9496 257.692 25.9496H258.495C258.495 25.9496 258.495 24.5713 258.495 24.5713C258.495 24.5713 258.175 24.5714 258.175 24.5713ZM256.628 22.9858H257.313C257.313 22.9858 257.313 24.5713 257.313 24.5713C257.313 24.5713 256.358 24.5713 256.358 24.5713C256.508 24.3102 256.585 23.8658 256.628 22.9858Z" fill="#006540"/>
<path fill-rule="evenodd" clip-rule="evenodd" d="M261.299 22.1898L260.039 23.8966C260.039 23.8965 260.039 22.1898 260.039 22.1898H259.177C259.177 22.1898 259.177 25.3749 259.177 25.3749C259.177 25.3747 259.858 25.3749 259.858 25.3749C259.858 25.3747 261.125 23.6775 261.125 23.6775V25.3749C261.125 25.3747 261.987 25.3749 261.987 25.3749C261.987 25.3747 261.987 22.1898 261.987 22.1898C261.987 22.1898 261.299 22.1898 261.299 22.1898Z" fill="#006540"/>
<path fill-rule="evenodd" clip-rule="evenodd" d="M264.919 25.3747L265.885 25.3749C265.885 25.3747 264.607 22.1898 264.607 22.1898C264.607 22.1898 263.749 22.1898 263.749 22.1898L262.498 25.3749C262.498 25.3747 263.438 25.3749 263.438 25.3749C263.438 25.3747 263.615 24.8577 263.615 24.8577C263.615 24.8575 264.744 24.8577 264.744 24.8577C264.744 24.8575 264.919 25.3749 264.919 25.3747ZM264.53 24.1709L263.828 24.1711C263.828 24.1709 264.177 23.1844 264.177 23.1844C264.177 23.1844 264.53 24.1711 264.53 24.1709Z" fill="#006540"/>
<path fill-rule="evenodd" clip-rule="evenodd" d="M268.337 22.1898H266.397C266.398 22.1898 266.397 25.3749 266.397 25.3749C266.398 25.3747 267.283 25.3749 267.283 25.3749C267.283 25.3747 267.283 22.9842 267.283 22.9842H268.336C268.337 22.9842 268.337 22.1898 268.337 22.1898Z" fill="#006540"/>
<path fill-rule="evenodd" clip-rule="evenodd" d="M270.292 22.1898H268.937V25.3749H269.816V24.4954H270.292C270.969 24.4953 271.472 24.0085 271.472 23.3408C271.472 22.6728 270.969 22.1898 270.292 22.1898ZM270.187 23.7292L269.816 23.7294V22.9566H270.187C270.418 22.9564 270.57 23.1166 270.57 23.3429C270.571 23.5691 270.418 23.7294 270.187 23.7292Z" fill="#006540"/>
<path fill-rule="evenodd" clip-rule="evenodd" d="M273.785 22.1898L273.32 23.503C273.321 23.503 272.719 22.1898 272.719 22.1898H271.712C271.712 22.1898 272.866 24.3979 272.866 24.3979C272.766 24.5421 272.628 24.594 272.395 24.594C272.395 24.594 272.167 24.594 272.167 24.594C272.167 24.594 272.167 25.392 272.167 25.392C272.167 25.3918 272.45 25.392 272.45 25.392C273.149 25.3918 273.529 25.1061 273.85 24.3287C273.85 24.3287 274.733 22.1898 274.733 22.1898C274.733 22.1898 273.785 22.1898 273.785 22.1898Z" fill="#006540"/>
<path fill-rule="evenodd" clip-rule="evenodd" d="M275.237 22.1898V25.3749H276.126V22.9899H277.014V25.3749H277.903V22.1898H275.237Z" fill="#006540"/>
<path fill-rule="evenodd" clip-rule="evenodd" d="M278.723 22.1898L278.723 25.3749H279.612V22.9899H280.5V25.3749H281.389V22.1898H278.723Z" fill="#006540"/>
<path fill-rule="evenodd" clip-rule="evenodd" d="M284.32 25.3747L285.286 25.3749C285.286 25.3747 284.007 22.1898 284.007 22.1898C284.007 22.1898 283.15 22.1898 283.15 22.1898C283.15 22.1898 281.898 25.3749 281.898 25.3749C281.899 25.3747 282.839 25.3749 282.839 25.3749C282.839 25.3747 283.015 24.8577 283.015 24.8577C283.015 24.8575 284.144 24.8577 284.144 24.8577C284.144 24.8575 284.319 25.3749 284.32 25.3747ZM283.93 24.1709L283.229 24.1711C283.229 24.1709 283.578 23.1844 283.578 23.1844C283.578 23.1844 283.93 24.1711 283.93 24.1709Z" fill="#006540"/>
<path fill-rule="evenodd" clip-rule="evenodd" d="M127.828 24.3768C122.008 24.3768 117.67 27.7642 116.556 33.1501C116.556 33.15 114.427 33.1501 114.427 33.1501C114.427 33.15 114.427 32.2439 114.427 31.0338C114.427 27.6655 111.697 24.9357 108.329 24.9357C108.328 24.9356 108.327 24.9357 108.327 24.9357C108.327 24.9356 108.327 34.3908 108.327 40.9297C108.327 44.2979 111.057 47.0284 114.425 47.0284C114.426 47.0284 114.427 47.0284 114.427 47.0284C114.427 47.0284 114.427 38.7505 114.427 38.7505C114.427 38.7503 116.547 38.7505 116.547 38.7505C117.651 44.1405 122.007 47.5867 127.748 47.5867C134.692 47.5867 139.644 42.9187 139.644 35.982C139.644 29.0587 134.728 24.3768 127.828 24.3768C127.828 24.3766 127.828 24.3769 127.828 24.3768ZM127.71 41.9047C124.384 41.9047 122.041 39.4755 122.041 35.982C122.041 32.488 124.384 30.0588 127.71 30.0588C131.055 30.0588 133.361 32.5066 133.361 35.982C133.361 39.4755 131.055 41.9047 127.71 41.9047Z" fill="#006540"/>
<path fill-rule="evenodd" clip-rule="evenodd" d="M154.345 29.9836H142.407V47.0264C143.935 47.0264 145.401 46.4193 146.482 45.3387C147.563 44.2579 148.169 42.7931 148.169 41.2649C148.169 38.1948 148.169 35.0447 148.169 35.0447H154.345L154.345 29.9836Z" fill="#006540"/>
<path fill-rule="evenodd" clip-rule="evenodd" d="M173.681 47.5859C179.566 47.5859 184.077 43.643 184.916 37.8338C184.916 37.8336 178.692 37.8338 178.692 37.8338C178.073 40.2885 176.145 41.8861 173.694 41.8861C170.566 41.8861 168.271 39.4071 168.271 35.9993C168.271 32.5786 170.566 30.0634 173.694 30.0634C176.019 30.0634 177.928 31.5339 178.686 33.8C178.686 33.7998 184.853 33.8 184.853 33.8C183.956 28.1979 179.471 24.3768 173.681 24.3768C166.957 24.3766 161.935 29.3547 161.935 35.9998C161.935 42.6084 166.957 47.5859 173.681 47.5859C173.681 47.5858 173.681 47.5859 173.681 47.5859Z" fill="#006540"/>
<path fill-rule="evenodd" clip-rule="evenodd" d="M200.113 29.9836L193.199 37.5431V29.9836H187.54V47.0264H190.983L197.839 39.3745V47.0264H203.498V29.9836H200.113Z" fill="#006540"/>
<path fill-rule="evenodd" clip-rule="evenodd" d="M216.985 30.7145C215.202 30.7145 213.525 31.2703 212.028 32.4022C212.496 30.8572 213.955 29.7642 216.31 29.1899C216.31 29.1899 216.707 29.0936 217.301 28.9494C220.418 28.1914 222.613 25.3994 222.613 22.1907L216.31 23.7227C209.709 25.3282 206.484 29.674 206.484 36.9913C206.484 43.6114 210.066 47.5861 216.04 47.5861C221.67 47.5861 225.357 44.1507 225.357 38.9515C225.357 34.0771 221.954 30.7145 216.985 30.7145ZM216.053 42.5008C213.972 42.5008 212.455 40.9526 212.455 38.8533C212.455 36.754 213.972 35.2055 216.053 35.2055C218.134 35.2055 219.651 36.7541 219.651 38.8533C219.651 40.9526 218.121 42.5008 216.053 42.5008Z" fill="#006540"/>
<path fill-rule="evenodd" clip-rule="evenodd" d="M240.668 29.9836L233.754 37.5431V29.9836H228.095V47.0264H231.538L238.393 39.3745V47.0264H244.052V29.9836H240.668Z" fill="#006540"/>
<path fill-rule="evenodd" clip-rule="evenodd" d="M257.715 29.4278C255.69 29.4278 253.886 30.1283 252.484 31.3404C252.031 30.506 251.158 29.9862 250.209 29.9867C249.084 29.9867 247.757 29.9867 247.757 29.9867V53.1835C250.962 53.1835 253.56 50.5855 253.56 47.3806C253.561 46.8309 253.56 46.4743 253.56 46.4743C254.763 47.2009 256.174 47.6059 257.715 47.6059C262.927 47.6057 266.652 43.8178 266.652 38.5079C266.652 33.1979 262.927 29.4279 257.715 29.4278ZM256.93 42.4077C254.731 42.4077 253.115 40.7467 253.115 38.5073C253.115 36.2686 254.731 34.6074 256.93 34.6074C259.129 34.6074 260.745 36.2686 260.745 38.5073C260.745 40.7466 259.115 42.4077 256.93 42.4077Z" fill="#006540"/>
<path fill-rule="evenodd" clip-rule="evenodd" d="M281.919 29.9836L275.005 37.5431V29.9836H269.346V47.0264H272.789C272.789 47.0264 279.644 39.3745 279.644 39.3745C279.645 39.3744 279.644 47.0264 279.644 47.0264C279.645 47.0264 285.303 47.0264 285.303 47.0264C285.303 47.0264 285.303 29.9836 285.303 29.9836C285.303 29.9836 281.919 29.9836 281.919 29.9836Z" fill="#006540"/>
<path fill-rule="evenodd" clip-rule="evenodd" d="M69.6483 41.6942C67.4126 39.4585 67.4126 35.8331 69.6483 33.5969C71.5309 31.7147 73.8144 29.4307 75.9209 27.3244C79.4482 23.7975 79.6729 18.0786 76.1456 14.5518C76.1446 14.55 76.144 14.55 76.144 14.55C76.144 14.5499 68.6862 22.0079 62.2386 28.4555C57.1405 33.554 57.1406 41.8202 62.2386 46.9181C68.6861 53.3658 76.144 60.8238 76.144 60.8238C76.144 60.8237 76.1585 60.8088 76.1866 60.7812C79.714 57.2538 79.4892 51.5354 75.9619 48.008C73.8422 45.8883 71.5418 43.5877 69.6483 41.6942Z" fill="#006540"/>
<path fill-rule="evenodd" clip-rule="evenodd" d="M91.0048 29.9781L86.5837 34.3528C84.722 36.195 84.7222 39.1813 86.5837 41.0235L91.0048 45.3976C94.7239 40.9296 94.7241 34.4467 91.0048 29.9781Z" fill="#A6D5C0"/>
<path fill-rule="evenodd" clip-rule="evenodd" d="M86.2083 28.6314C86.4421 26.6448 85.7758 24.7771 84.5632 23.4483L84.4981 23.378L84.4725 23.3508C84.4368 23.3131 84.4004 23.2758 84.3633 23.2387L84.3625 23.2378L76.1651 31.4351C76.0479 31.5295 75.9342 31.6224 75.8221 31.7152L73.9403 33.5969C72.8217 34.7159 72.263 36.1825 72.2637 37.649V37.6555V37.6669C72.2641 39.1319 72.8228 40.5969 73.9403 41.7146L75.8221 43.5963C75.9342 43.689 76.0479 43.782 76.1651 43.8763L84.3625 52.0736L84.3633 52.0727L84.367 52.0689L84.3707 52.0652L84.3745 52.0615L84.3929 52.0424L84.4394 51.9953L84.4434 51.9913C86.7761 49.5233 86.9277 45.6495 84.5161 43.0729L82.371 40.9595C81.448 40.0461 80.9831 38.8514 80.9752 37.6547C80.9831 36.4579 81.448 35.2631 82.371 34.3498L84.5148 32.2379C85.4795 31.2078 86.0445 29.9396 86.2095 28.6303L86.2083 28.6314Z" fill="#3D9C72"/>
</svg>
