<svg width="68" height="68" viewBox="0 0 68 68" fill="none" xmlns="http://www.w3.org/2000/svg">
<rect width="68" height="68" rx="34" fill="#F3F2F3"/>
<mask id="path-2-inside-1_5234_9395" fill="white">
<path d="M41 24.851C41 28.5918 37.866 31.9373 34 31.9373C30.134 31.9373 27 28.5918 27 24.851C27 21.1103 30.134 17.5 34 17.5C37.866 17.5 41 21.1103 41 24.851Z"/>
<path d="M50.5 42.7594C50.5 47.0346 45.5 50.5003 34 50.5003C22.5 50.5003 17.5 47.0346 17.5 42.7594C17.5 38.4843 24.8873 35.0186 34 35.0186C43.1127 35.0186 50.5 38.4843 50.5 42.7594Z"/>
</mask>
<path d="M40 24.851C40 28.067 37.2866 30.9373 34 30.9373V32.9373C38.4454 32.9373 42 29.1166 42 24.851H40ZM34 30.9373C30.7134 30.9373 28 28.067 28 24.851H26C26 29.1166 29.5546 32.9373 34 32.9373V30.9373ZM28 24.851C28 21.5872 30.7587 18.5 34 18.5V16.5C29.5093 16.5 26 20.6333 26 24.851H28ZM34 18.5C37.2413 18.5 40 21.5872 40 24.851H42C42 20.6333 38.4907 16.5 34 16.5V18.5ZM49.5 42.7594C49.5 44.4275 48.553 46.0679 46.1003 47.3463C43.6145 48.6419 39.6724 49.5003 34 49.5003L34 51.5003C39.8276 51.5003 44.1355 50.6258 47.0247 49.1198C49.947 47.5966 51.5 45.3666 51.5 42.7594H49.5ZM34 49.5003C28.3276 49.5003 24.3855 48.6419 21.8997 47.3463C19.447 46.0679 18.5 44.4275 18.5 42.7594H16.5C16.5 45.3666 18.053 47.5966 20.9753 49.1198C23.8645 50.6258 28.1724 51.5003 34 51.5003L34 49.5003ZM18.5 42.7594C18.5 41.2384 19.8525 39.554 22.7575 38.1912C25.583 36.8656 29.5568 36.0186 34 36.0186V34.0186C29.3305 34.0186 25.0543 34.9045 21.908 36.3805C18.8412 37.8193 16.5 40.0054 16.5 42.7594H18.5ZM34 36.0186C38.4432 36.0186 42.417 36.8656 45.2425 38.1912C48.1475 39.554 49.5 41.2384 49.5 42.7594H51.5C51.5 40.0054 49.1588 37.8193 46.092 36.3805C42.9457 34.9045 38.6695 34.0186 34 34.0186V36.0186Z" fill="black" mask="url(#path-2-inside-1_5234_9395)"/>
</svg>
