<svg width="33" height="33" viewBox="0 0 33 33" fill="none" xmlns="http://www.w3.org/2000/svg">
<rect x="0.5" y="0.5" width="32" height="32" rx="16" stroke="#777777"/>
<path d="M6.988 20.5V19.66H8.92V12.892H9.436L7.396 14.188L6.976 13.456L9.196 12.04H9.904V19.66H11.716V20.5H6.988ZM16.2953 20.608C15.3433 20.608 14.6033 20.404 14.0753 19.996C13.5473 19.58 13.2833 19 13.2833 18.256C13.2833 17.864 13.3633 17.516 13.5233 17.212C13.6833 16.9 13.9073 16.648 14.1953 16.456C14.4833 16.264 14.8153 16.144 15.1913 16.096V16.276C14.8473 16.196 14.5473 16.06 14.2913 15.868C14.0353 15.668 13.8353 15.424 13.6913 15.136C13.5553 14.848 13.4873 14.532 13.4873 14.188C13.4873 13.476 13.7393 12.924 14.2433 12.532C14.7553 12.132 15.4393 11.932 16.2953 11.932C17.1593 11.932 17.8433 12.132 18.3473 12.532C18.8593 12.924 19.1153 13.476 19.1153 14.188C19.1153 14.532 19.0433 14.852 18.8993 15.148C18.7633 15.436 18.5673 15.676 18.3113 15.868C18.0553 16.06 17.7553 16.192 17.4113 16.264V16.096C17.7873 16.144 18.1153 16.268 18.3953 16.468C18.6833 16.66 18.9073 16.908 19.0673 17.212C19.2273 17.516 19.3073 17.864 19.3073 18.256C19.3073 19 19.0433 19.58 18.5153 19.996C17.9873 20.404 17.2473 20.608 16.2953 20.608ZM16.2953 19.792C16.9753 19.792 17.4873 19.66 17.8313 19.396C18.1833 19.132 18.3593 18.732 18.3593 18.196C18.3593 17.668 18.1833 17.276 17.8313 17.02C17.4873 16.756 16.9753 16.624 16.2953 16.624C15.6233 16.624 15.1113 16.756 14.7593 17.02C14.4073 17.276 14.2313 17.668 14.2313 18.196C14.2313 18.732 14.4073 19.132 14.7593 19.396C15.1113 19.66 15.6233 19.792 16.2953 19.792ZM16.2953 15.808C16.8873 15.808 17.3473 15.672 17.6753 15.4C18.0033 15.128 18.1673 14.752 18.1673 14.272C18.1673 13.792 18.0033 13.42 17.6753 13.156C17.3473 12.884 16.8873 12.748 16.2953 12.748C15.7113 12.748 15.2553 12.884 14.9273 13.156C14.5993 13.42 14.4353 13.792 14.4353 14.272C14.4353 14.752 14.5993 15.128 14.9273 15.4C15.2553 15.672 15.7113 15.808 16.2953 15.808ZM23.1066 20.02V17.428H20.5626V16.684H23.1066V14.164H23.8746V16.684H26.4186V17.428H23.8746V20.02H23.1066Z" fill="black"/>
</svg>
