<svg width="2083" height="1047" viewBox="0 0 2083 1047" fill="none" xmlns="http://www.w3.org/2000/svg">
<path d="M138.936 41.9483C143.394 17.6479 164.574 0 189.28 0H1913.71C1944.73 0 1968.62 27.3641 1964.43 58.095L1884.94 641.447C1881.48 666.81 1859.82 685.72 1834.22 685.72H187.844C177.84 685.72 168.055 688.652 159.699 694.153L0 799.288L138.936 41.9483Z" fill="black"/>
<path d="M904.524 631.021H2031.95C2052.69 631.021 2068.56 649.484 2065.44 669.984L2014.09 1007.76C2011.57 1024.31 1997.34 1036.54 1980.6 1036.54H853.173C832.437 1036.54 816.569 1018.08 819.686 997.578L871.037 659.802C873.553 643.251 887.783 631.021 904.524 631.021Z" fill="url(#paint0_linear_6645_4898)" stroke="white" stroke-width="20"/>
<path d="M357.509 214.707L307.499 502.515H254.523L304.336 214.707H357.509ZM525.331 214.707L386.171 381.145H315.405L316.987 333.309H362.451L457.53 214.707H525.331ZM420.961 502.515L358.102 370.076L398.624 331.926L481.448 502.515H420.961ZM612.503 398.343L713.513 214.707H773.407L637.014 448.748C632.402 457.182 627.394 464.957 621.991 472.073C616.588 479.19 610.593 485.449 604.004 490.852C597.415 496.123 589.969 500.143 581.667 502.91C573.496 505.809 564.206 507.325 553.795 507.456C550.237 507.325 546.613 507.127 542.924 506.863C539.234 506.732 535.61 506.534 532.052 506.27L536.203 463.178C538.575 463.574 541.013 463.903 543.517 464.167C546.02 464.298 548.524 464.364 551.028 464.364C557.881 464.364 563.811 463.244 568.818 461.004C573.826 458.632 578.175 455.337 581.864 451.12C585.554 446.772 588.915 441.632 591.946 435.702L612.503 398.343ZM594.318 214.707L635.828 367.901L641.165 424.237L602.62 425.423L539.365 214.707H594.318ZM985.309 214.707L977.797 257.602H850.103L807.604 502.515H754.628L804.441 214.707H985.309ZM821.44 322.437L886.078 322.635C903.605 323.03 919.551 326.588 933.915 333.309C948.279 339.898 959.48 349.65 967.518 362.564C975.557 375.347 978.852 391.161 977.402 410.005C976.084 425.423 971.999 438.931 965.146 450.527C958.426 462.124 949.662 471.81 938.856 479.585C928.05 487.228 915.927 493.026 902.485 496.98C889.175 500.802 875.338 502.646 860.974 502.515H754.826L804.638 214.707H858.009L815.313 459.818L862.753 460.016C873.032 460.016 882.586 458.039 891.416 454.086C900.245 450 907.559 444.268 913.357 436.888C919.287 429.377 922.977 420.284 924.426 409.61C925.612 400.385 924.69 392.544 921.659 386.087C918.76 379.63 914.082 374.688 907.624 371.262C901.167 367.704 893.524 365.727 884.695 365.332L813.929 365.134L821.44 322.437ZM1156.89 261.357L1036.11 502.515H977.995L1132.57 214.707H1169.73L1156.89 261.357ZM1181.99 502.515L1144.04 255.625L1146.61 214.707H1181.4L1236.35 502.515H1181.99ZM1196.42 395.575L1188.71 438.47H1038.68L1046.19 395.575H1196.42ZM1480.67 333.507L1473.16 376.204H1325.89L1333.21 333.507H1480.67ZM1368.79 214.707L1318.78 502.515H1265.6L1315.42 214.707H1368.79ZM1540.17 214.707L1490.16 502.515H1437.38L1487.19 214.707H1540.17ZM1609.75 322.437L1674.39 322.635C1691.91 323.03 1707.86 326.588 1722.22 333.309C1736.59 339.898 1747.79 349.65 1755.83 362.564C1763.86 375.347 1767.16 391.161 1765.71 410.005C1764.39 425.423 1760.31 438.931 1753.45 450.527C1746.73 462.124 1737.97 471.81 1727.16 479.585C1716.36 487.228 1704.23 493.026 1690.79 496.98C1677.48 500.802 1663.65 502.646 1649.28 502.515H1543.13L1592.95 214.707H1646.32L1603.62 459.818L1651.06 460.016C1661.34 460.016 1670.89 458.039 1679.72 454.086C1688.55 450 1695.87 444.268 1701.66 436.888C1707.59 429.377 1711.28 420.284 1712.73 409.61C1713.92 400.385 1713 392.544 1709.97 386.087C1707.07 379.63 1702.39 374.688 1695.93 371.262C1689.47 367.704 1681.83 365.727 1673 365.332L1602.24 365.134L1609.75 322.437Z" fill="white"/>
<path d="M955.863 887.055L1048.01 766.129H1081.38L1050.91 942.197H1018.38L1039.42 821.271L947.278 942.197H913.902L944.496 766.129H976.905L955.863 887.055ZM1215.01 838.805L1210.41 864.925H1120.32L1124.8 838.805H1215.01ZM1146.56 766.129L1115.97 942.197H1083.44L1113.91 766.129H1146.56ZM1251.41 766.129L1220.81 942.197H1188.52L1219 766.129H1251.41ZM1342.71 782.212L1378.38 782.454C1388.37 782.696 1397.28 784.711 1405.1 788.5C1413 792.289 1419.57 797.449 1424.81 803.979C1430.05 810.509 1433.84 818.046 1436.18 826.592C1438.52 835.056 1439.16 844.166 1438.12 853.921C1437.07 864.562 1434.25 874.317 1429.65 883.185C1425.14 892.053 1419.21 899.711 1411.87 906.161C1404.62 912.61 1396.32 917.649 1386.96 921.277C1377.61 924.824 1367.66 926.597 1357.1 926.597L1321.3 926.355C1311.3 926.194 1302.36 924.3 1294.46 920.672C1286.64 916.964 1280.07 911.925 1274.74 905.556C1269.5 899.187 1265.68 891.811 1263.26 883.427C1260.92 874.962 1260.27 865.852 1261.32 856.098C1262.37 845.375 1265.15 835.54 1269.67 826.592C1274.26 817.563 1280.19 809.743 1287.44 803.132C1294.78 796.521 1303.12 791.402 1312.47 787.774C1321.83 784.066 1331.9 782.212 1342.71 782.212ZM1341.5 808.695C1332.14 808.695 1323.96 810.791 1316.95 814.983C1309.93 819.094 1304.29 824.737 1300.02 831.912C1295.83 839.087 1293.13 847.189 1291.92 856.218C1291.27 861.781 1291.31 867.142 1292.04 872.302C1292.84 877.381 1294.42 881.976 1296.75 886.087C1299.17 890.118 1302.48 893.343 1306.67 895.761C1310.94 898.18 1316.14 899.51 1322.27 899.752L1358.43 900.115C1367.62 900.115 1375.64 898.099 1382.49 894.068C1389.42 890.037 1395.03 884.555 1399.3 877.622C1403.57 870.609 1406.27 862.708 1407.4 853.921C1408.13 848.358 1408.13 842.957 1407.4 837.717C1406.76 832.477 1405.26 827.761 1402.93 823.569C1400.67 819.296 1397.44 815.87 1393.25 813.29C1389.14 810.71 1383.94 809.299 1377.65 809.057L1341.5 808.695ZM1382.01 758.873L1348.99 949.452H1317.79L1350.81 758.873H1382.01ZM1601.49 849.326L1600.28 858.274C1598.67 869.48 1595.68 880.283 1591.33 890.682C1586.98 901.082 1581.25 910.393 1574.16 918.616C1567.06 926.759 1558.64 933.208 1548.88 937.964C1539.13 942.64 1528.04 944.857 1515.63 944.615C1503.78 944.373 1493.78 941.794 1485.64 936.876C1477.5 931.878 1471.05 925.267 1466.29 917.044C1461.62 908.821 1458.47 899.671 1456.86 889.594C1455.33 879.436 1455.21 869.158 1456.5 858.758L1457.71 849.688C1459.32 838.563 1462.34 827.841 1466.78 817.522C1471.21 807.123 1476.97 797.852 1484.07 789.709C1491.16 781.486 1499.59 775.037 1509.34 770.361C1519.18 765.685 1530.22 763.468 1542.47 763.71C1554.33 763.871 1564.32 766.451 1572.46 771.449C1580.61 776.367 1587.02 782.937 1591.69 791.16C1596.37 799.383 1599.47 808.533 1601 818.611C1602.62 828.688 1602.78 838.926 1601.49 849.326ZM1567.51 858.758L1568.72 849.326C1569.44 843.521 1569.8 837.314 1569.8 830.703C1569.8 824.012 1568.96 817.683 1567.26 811.718C1565.57 805.671 1562.63 800.714 1558.44 796.844C1554.24 792.894 1548.32 790.757 1540.66 790.435C1532.6 790.112 1525.63 791.725 1519.74 795.272C1513.86 798.738 1508.9 803.455 1504.87 809.42C1500.92 815.305 1497.77 821.755 1495.43 828.768C1493.18 835.782 1491.57 842.675 1490.6 849.447L1489.39 858.879C1488.66 864.522 1488.3 870.689 1488.3 877.381C1488.3 884.072 1489.15 890.481 1490.84 896.608C1492.53 902.654 1495.47 907.693 1499.67 911.723C1503.86 915.674 1509.78 917.77 1517.44 918.012C1525.59 918.334 1532.6 916.722 1538.48 913.175C1544.37 909.627 1549.29 904.911 1553.24 899.026C1557.19 893.061 1560.33 886.571 1562.67 879.557C1565.01 872.463 1566.62 865.53 1567.51 858.758ZM1691.58 878.106L1645.62 877.985L1650.22 851.865L1692.66 851.986C1699.03 851.986 1704.84 850.898 1710.08 848.721C1715.4 846.464 1719.79 843.158 1723.26 838.805C1726.73 834.371 1728.9 828.849 1729.79 822.238C1730.6 816.676 1730.19 811.718 1728.58 807.364C1727.05 802.93 1724.39 799.424 1720.6 796.844C1716.89 794.184 1712.13 792.732 1706.33 792.491L1671.38 792.37L1645.38 942.197H1612.85L1643.33 766.129L1707.3 766.25C1718.34 766.492 1728.18 768.87 1736.8 773.384C1745.51 777.818 1752.2 784.147 1756.88 792.37C1761.55 800.512 1763.41 810.388 1762.44 821.996C1761.39 834.734 1757.48 845.295 1750.71 853.679C1743.94 861.983 1735.35 868.15 1724.95 872.181C1714.55 876.131 1703.43 878.106 1691.58 878.106ZM1812.14 766.129H1839.11L1862.69 898.422L1932.22 766.129H1961.6L1867.64 942.197H1845.03L1812.14 766.129ZM1797.39 766.129H1824.96L1808.63 889.231L1799.32 942.197H1766.91L1797.39 766.129ZM1947.33 766.129H1975.03L1944.55 942.197H1912.02L1921.7 886.45L1947.33 766.129Z" fill="black"/>
<defs>
<linearGradient id="paint0_linear_6645_4898" x1="602.5" y1="940.5" x2="2083" y2="833.781" gradientUnits="userSpaceOnUse">
<stop stop-color="#F39412"/>
<stop offset="1" stop-color="#FDCF00"/>
</linearGradient>
</defs>
</svg>
