<svg width="2041" height="508" viewBox="0 0 2041 508" fill="none" xmlns="http://www.w3.org/2000/svg">
<circle cx="253.548" cy="253.548" r="253.548" fill="#383436"/>
<path d="M155.041 148.08L160.163 148.489C162.206 152.048 161.3 159.175 161.378 163.495L162.625 189.222C159.77 188.975 157.772 189.331 155.601 187.371L155.041 148.08Z" fill="#FEFEFE"/>
<path d="M426.047 150.368L427.572 147.822C430.095 148.623 431.075 148.679 432.709 150.863C432.621 165.122 428.118 173.657 423.612 186.773L411.773 223.167C408.479 233.686 406.57 244.597 404.364 255.379C401.97 267.082 399.414 278.507 398.664 290.461L395.708 308.735C394.389 314.907 392.402 321.074 392.679 327.446C393.193 339.275 399.152 355.755 405.111 365.964C408.19 371.237 412.745 376.982 414.678 382.686C415.488 385.072 414.962 387.372 414.093 389.656L411.676 389.525C400.428 371.28 390.596 354.94 386.904 333.37C384.979 322.134 388.857 306.395 390.649 295.127L398.551 250.385C400.485 240.464 402.202 230.363 405.67 220.837L417.908 184.433C420.009 178.603 423.452 173.138 424.878 167.098C426.125 161.811 425.919 155.788 426.047 150.368Z" fill="#FEFEFE"/>
<path d="M108.962 166.065C116.734 165.497 124.584 166.298 132.341 166.846L141.123 207.218L230.929 207.135L230.639 166.151L276.749 166.479L276.031 207.217L365.896 206.939C367.513 205.302 368.223 198.931 368.764 196.552L375.863 166.166C384.256 165.518 392.638 166.176 401.022 166.675C397.672 177.177 395.572 188.116 392.058 198.562C390.518 203.14 387.518 206.553 386.282 211.719C375.164 258.26 372.055 306.417 363.834 353.436L374.228 356.865C376.193 361.316 376.809 366.666 377.759 371.429L365.299 371.833L298.146 371.176L297.722 310.477C297.636 301.023 298.808 288.756 296.468 279.664C294.792 273.146 290.613 266.467 285.921 261.64C277.861 253.344 267.559 250.919 256.397 250.79C243.116 250.638 231.837 251.899 221.928 261.638C215.92 267.546 211.924 274.933 209.988 283.109C207.599 293.19 208.727 305.206 208.696 315.535L208.472 371.411L129.263 371.188L132.904 359.13C135.344 356.31 137.912 355.298 141.344 354.006C142.49 352.425 142.124 351.692 141.951 349.839L129.317 255.09C126.625 239.487 124.215 223.803 120.248 208.456C119.032 203.752 116.614 202.005 114.676 197.929C110.973 190.146 106.891 176.151 106.439 167.616L108.962 166.065Z" fill="#FEFEFE"/>
<path d="M238.766 271.219C245.166 268.377 260.669 269.188 267.228 271.734C271.769 273.495 275.671 276.369 277.599 280.974C279.013 284.354 278.915 289.081 279.034 292.711L279.284 317.659L279.383 389.193L384.59 389.445C389.923 389.461 395.373 389.357 400.688 389.753C404.089 390.007 408.716 391.445 411.675 389.525L414.092 389.656C414.961 387.373 415.487 385.072 414.677 382.686C412.744 376.982 408.189 371.237 405.11 365.964C399.151 355.756 393.192 339.275 392.678 327.447C392.401 321.074 394.388 314.907 395.707 308.735L395.906 309.181C397.754 313.114 402.89 316.748 406.024 319.764L426.5 340.289C436.525 351.085 446.527 362.897 454.799 375.098C450.198 385.159 442.692 394.137 435.546 402.505C408.902 433.714 375.306 458.557 336.732 472.905C280.707 493.744 212.041 492.479 157.502 467.54C125.858 453.069 97.2056 432.031 74.5149 405.596C66.5244 396.286 59.0828 387.008 53.6758 375.917C64.676 356.018 82.735 337.437 99.479 322.144C104.949 317.148 110.916 311.128 117.66 307.949C121.495 331.728 118.85 351.243 106.107 371.942C102.273 378.17 97.5589 384.163 94.695 390.905L228.009 389.763L227.996 315.613C227.997 305.722 226.411 292.765 228.636 283.329C230.004 277.527 233.952 274.264 238.766 271.219Z" fill="#91BD24"/>
<path d="M238.766 271.219C234.46 282.87 235.864 296.466 235.818 308.729L235.704 363.025C235.696 370.542 236.598 379.167 235.577 386.532C235.4 387.803 235.394 388.496 234.183 389.085C232.549 389.879 229.827 389.697 228.009 389.764L227.996 315.614C227.997 305.722 226.411 292.765 228.635 283.33C230.004 277.527 233.951 274.265 238.766 271.219Z" fill="#FEFEFE"/>
<path d="M155.04 148.08L154.759 147.895C151.251 145.832 89.6682 147.296 80.9867 147.471C81.3375 155.793 80.8437 168.503 84.5081 176.102C86.2412 179.696 89.4349 182.084 90.6305 185.934C93.7178 195.879 95.598 206.458 99.1128 216.231C100.275 219.462 103.08 221.652 104.152 225.037C106.462 232.341 107.446 240.182 108.783 247.707C111.067 260.558 113.148 273.25 114.121 286.277C86.9658 304.553 61.6785 330.862 41.7643 356.69C15.6428 297.552 12.0495 230.047 35.5584 169.493C57.8801 111.996 103.948 65.8939 160.072 41.2016C213.616 17.6436 281.157 15.4741 335.776 36.7771C349.375 42.0812 363.024 47.9334 375.581 55.4258C417.975 80.7206 450.8 119.863 470.473 164.913C495.586 222.422 493.093 288.572 470.335 346.318L465.563 357.67C456.652 346.01 410.759 292.238 399.06 290.505L398.662 290.461C399.413 278.507 401.969 267.082 404.363 255.379C406.568 244.598 408.478 233.687 411.772 223.167L423.61 186.773C428.116 173.657 432.619 165.123 432.708 150.863C431.074 148.679 430.094 148.623 427.57 147.823L426.046 150.368L425.523 147.716C417.738 146.492 408.952 147.236 401.05 147.248L351.644 147.704L351.523 188.402C347.383 189.729 341.091 188.969 336.715 188.989L299.149 188.616C297.451 188.688 296.377 188.689 294.852 187.874C294.222 183.746 297.651 177.033 298.397 172.596C299.743 164.583 299.729 156.037 300.129 147.911C291.166 145.429 277.128 147.248 267.663 147.265L206.787 147.544C208.193 162.216 207.951 174.639 213.007 188.788L178.836 188.909C173.85 188.929 167.435 188.256 162.624 189.222L161.377 163.495C161.299 159.175 162.205 152.048 160.162 148.489L155.04 148.08Z" fill="#38A8BF"/>
<path d="M300.129 147.911C303.209 148.037 304.157 147.665 306.481 149.849C308.869 159.436 304.878 178.232 301.558 187.702L299.149 188.616C297.451 188.687 296.377 188.689 294.852 187.874C294.223 183.746 297.651 177.033 298.397 172.596C299.743 164.583 299.729 156.037 300.129 147.911Z" fill="#FEFEFE"/>
<path d="M716.841 121.497L676.179 210.519C668.572 227.182 661.387 238.533 654.625 244.57C647.863 250.607 639.29 253.626 628.906 253.626C622.023 253.626 616.408 252.63 612.061 250.638V223.922C617.012 227.122 622.144 228.722 627.457 228.722C634.762 228.722 641.192 222.805 646.746 210.972L604.092 121.497H637.418L658.972 173.479C660.24 176.619 661.236 180.15 661.961 184.075H662.142C662.806 180.815 663.832 177.403 665.221 173.841L686.05 121.497H716.841Z" fill="#383436"/>
<path d="M821.349 246.743C811.87 251.332 799.494 253.626 784.219 253.626C764.295 253.626 748.628 247.77 737.217 236.057C725.807 224.345 720.101 208.738 720.101 189.237C720.101 168.468 726.501 151.624 739.3 138.703C752.16 125.783 768.823 119.323 789.29 119.323C801.969 119.323 812.655 120.923 821.349 124.123V152.288C812.655 147.095 802.754 144.499 791.645 144.499C779.449 144.499 769.608 148.333 762.122 156.001C754.635 163.668 750.892 174.053 750.892 187.154C750.892 199.712 754.424 209.734 761.488 217.22C768.552 224.646 778.061 228.359 790.015 228.359C801.426 228.359 811.87 225.582 821.349 220.028V246.743Z" fill="#383436"/>
<path d="M935.185 145.314H898.145V251.362H868.803V145.314H831.945V121.497H935.185V145.314Z" fill="#383436"/>
<path d="M952.664 251.362V121.497H981.915V170.128H1001.02C1032.36 170.128 1048.02 182.867 1048.02 208.345C1048.02 221.93 1043.8 232.495 1035.35 240.042C1026.89 247.589 1014.97 251.362 999.574 251.362H952.664ZM981.915 192.225V229.084H995.137C1009.87 229.084 1017.23 222.835 1017.23 210.338C1017.23 198.263 1010.05 192.225 995.68 192.225H981.915Z" fill="#383436"/>
<path d="M1115.86 211.877H1066.32V191.863H1115.86V211.877Z" fill="#383436"/>
<path d="M1248.89 251.362H1219.64V145.858H1193.65C1186.64 195.606 1180.09 225.944 1174 236.872C1167.9 247.74 1158.63 253.173 1146.19 253.173C1140.94 253.173 1135.69 252.328 1130.44 250.638V227.273C1133.94 228.48 1136.96 229.084 1139.49 229.084C1141.97 229.084 1144.14 228.299 1146.01 226.729C1147.94 225.16 1150.06 220.994 1152.35 214.232C1154.65 207.47 1157.39 195.818 1160.59 179.275C1163.85 162.672 1166.96 143.413 1169.92 121.497H1248.89V251.362Z" fill="#383436"/>
<path d="M1392.88 251.362H1361.01L1351.77 222.473H1305.58L1296.44 251.362H1264.74L1312.01 121.497H1346.7L1392.88 251.362ZM1345.07 200.014L1331.12 156.363C1330.09 153.103 1329.37 149.209 1328.95 144.68H1328.22C1327.92 148.484 1327.17 152.257 1325.96 156.001L1311.83 200.014H1345.07Z" fill="#383436"/>
<path d="M1409.09 251.362V121.497H1492.68V145.496H1438.35V173.841H1463.43C1477.32 173.841 1488.03 177.071 1495.58 183.531C1503.19 189.931 1506.99 198.806 1506.99 210.157C1506.99 223.197 1502.95 233.34 1494.86 240.585C1486.83 247.77 1475.42 251.362 1460.62 251.362H1409.09ZM1438.35 195.123V229.99H1455.46C1469.17 229.99 1476.02 224.012 1476.02 212.058C1476.02 200.768 1469.47 195.123 1456.37 195.123H1438.35Z" fill="#383436"/>
<path d="M1645.1 251.362H1617.48V180C1617.48 171.789 1617.78 164.785 1618.38 158.989H1617.84C1616.57 161.465 1614.4 165.057 1611.32 169.766L1557.71 251.362H1528.27V121.497H1555.89V193.312C1555.89 202.187 1555.65 208.134 1555.17 211.153H1555.53C1555.83 210.428 1558.07 206.896 1562.23 200.557L1613.76 121.497H1645.1V251.362Z" fill="#383436"/>
<path d="M1787.37 251.362H1758.03V198.474H1704.23V251.362H1674.98V121.497H1704.23V173.298H1758.03V121.497H1787.37V251.362Z" fill="#383436"/>
<path d="M1910.26 246.743C1900.78 251.332 1888.41 253.626 1873.13 253.626C1853.21 253.626 1837.54 247.77 1826.13 236.057C1814.72 224.345 1809.01 208.738 1809.01 189.237C1809.01 168.468 1815.41 151.624 1828.21 138.703C1841.07 125.783 1857.74 119.323 1878.2 119.323C1890.88 119.323 1901.57 120.923 1910.26 124.123V152.288C1901.57 147.095 1891.67 144.499 1880.56 144.499C1868.36 144.499 1858.52 148.333 1851.03 156.001C1843.55 163.668 1839.81 174.053 1839.81 187.154C1839.81 199.712 1843.34 209.734 1850.4 217.22C1857.46 224.646 1866.97 228.359 1878.93 228.359C1890.34 228.359 1900.78 225.582 1910.26 220.028V246.743Z" fill="#383436"/>
<path d="M2040.85 251.362H2003.9L1966.05 194.942C1965.32 193.855 1964.18 191.471 1962.61 187.788H1962.15V251.362H1932.9V121.497H1962.15V182.898H1962.61C1963.33 181.207 1964.54 178.792 1966.23 175.653L2002.09 121.497H2036.96L1991.68 183.441L2040.85 251.362Z" fill="#383436"/>
<path d="M683.906 386.325H673.763V323.777C673.763 318.142 673.964 314.177 674.367 311.883H674.005C673.24 313.855 672.314 315.667 671.227 317.317L626.671 386.325H614.113V299.748H624.256V360.726C624.256 367.247 624.095 371.493 623.773 373.465H624.015C624.9 371.694 626.027 369.762 627.396 367.669L670.865 299.748H683.906V386.325Z" fill="#383436"/>
<path d="M771.811 386.325H761.668V346.84H716.871V386.325H706.728V299.748H716.871V337.723H761.668V299.748H771.811V386.325Z" fill="#383436"/>
<path d="M833.272 374.975V386.325H823.854V374.975H822.224C812.564 374.975 804.574 371.694 798.255 365.133C791.976 358.533 788.837 350.422 788.837 340.803C788.837 331.626 791.976 323.898 798.255 317.619C804.534 311.34 812.564 308.2 822.345 308.2H823.854V297.333H833.272V308.2H834.721C844.623 308.2 852.673 311.3 858.871 317.498C865.11 323.656 868.229 331.424 868.229 340.803C868.229 350.301 865.07 358.372 858.75 365.013C852.471 371.654 844.502 374.975 834.842 374.975H833.272ZM833.272 316.713V366.039H834.842C841.725 366.039 847.239 363.765 851.385 359.217C855.53 354.628 857.603 348.531 857.603 340.923C857.603 333.678 855.53 327.842 851.385 323.415C847.239 318.947 841.685 316.713 834.721 316.713H833.272ZM823.854 366.039V316.713H822.345C815.502 316.713 809.968 318.967 805.742 323.475C801.556 327.983 799.463 333.799 799.463 340.923C799.463 348.571 801.536 354.669 805.681 359.217C809.827 363.765 815.341 366.039 822.224 366.039H823.854Z" fill="#383436"/>
<path d="M919.246 387.774C906.969 387.774 897.128 383.729 889.723 375.639C882.357 367.548 878.674 357.023 878.674 344.063C878.674 330.136 882.437 319.028 889.964 310.736C897.491 302.445 907.734 298.299 920.695 298.299C932.649 298.299 942.268 302.324 949.554 310.374C956.879 318.424 960.542 328.949 960.542 341.95C960.542 356.077 956.798 367.247 949.312 375.458C941.826 383.668 931.803 387.774 919.246 387.774ZM919.97 307.476C910.874 307.476 903.488 310.756 897.813 317.317C892.137 323.878 889.3 332.491 889.3 343.157C889.3 353.823 892.057 362.417 897.571 368.937C903.126 375.417 910.35 378.657 919.246 378.657C928.745 378.657 936.231 375.558 941.705 369.36C947.179 363.161 949.916 354.487 949.916 343.338C949.916 331.907 947.259 323.073 941.946 316.834C936.633 310.595 929.308 307.476 919.97 307.476Z" fill="#383436"/>
</svg>
